<svg xmlns="http://www.w3.org/2000/svg" xmlns:v="https://svgstorm.com"
viewBox = "0 0 1154 866"
width="1154"
height="866">
<g fill="None" fill-opacity="0.0" stroke="#000000" stroke-opacity="0.00" stroke-width="0.3"><path d="
M 0.00 866.00 
L 1154.00 866.00
L 1154.00 0.00
L 0.00 0.00
L 0.00 866.00
M 306.00 340.00 
C 305.51 334.96 305.52 328.97 306.00 324.00
C 306.00 295.37 325.46 269.21 342.30 247.30 C 359.14 225.39 389.79 211.16 417.00 209.00
C 419.87 208.77 423.13 208.77 426.00 209.00
C 450.17 210.92 478.18 214.98 497.70 229.30 C 517.21 243.63 531.60 256.76 541.92 278.08 C 552.25 299.39 560.67 328.05 550.22 350.22 C 539.77 372.40 533.97 392.50 518.25 411.25 C 502.53 429.99 485.73 440.00 463.31 449.31 C 440.88 458.61 407.96 454.40 385.98 446.02 C 363.99 437.65 343.72 429.14 329.75 409.25 C 315.78 389.36 306.00 364.89 306.00 340.00 Z"/>
</g>
<g fill="None" fill-opacity="0.0" stroke="#EDEADE" stroke-opacity="0.94" stroke-width="0.3"><path d="
M 306.00 324.00 
C 306.00 329.33 306.00 334.67 306.00 340.00
C 306.00 364.89 315.78 389.36 329.75 409.25 C 343.72 429.14 363.99 437.65 385.98 446.02 C 407.96 454.40 440.88 458.61 463.31 449.31 C 485.73 440.00 502.53 429.99 518.25 411.25 C 533.97 392.50 539.77 372.40 550.22 350.22 C 560.67 328.05 552.25 299.39 541.92 278.08 C 531.60 256.76 517.21 243.63 497.70 229.30 C 478.18 214.98 450.17 210.92 426.00 209.00
C 425.67 209.04 424.28 210.51 422.00 211.00 C 419.71 211.49 417.32 209.04 417.00 209.00
C 389.79 211.16 359.14 225.39 342.30 247.30 C 325.46 269.21 306.00 295.37 306.00 324.00
M 475.00 241.00 
C 478.19 242.04 479.31 242.32 482.00 244.00
C 495.81 252.64 506.17 266.55 516.00 279.00
C 539.77 309.11 538.91 361.36 510.00 389.00
C 509.95 389.50 510.00 390.00 510.00 390.00
C 506.38 400.02 494.23 404.42 487.25 412.25 C 480.27 420.08 468.96 426.53 458.97 429.97 C 448.99 433.42 431.88 438.44 421.33 435.67 C 410.77 432.91 391.51 435.70 384.00 427.00
C 383.78 426.74 383.26 426.12 383.00 426.00
C 382.50 425.96 382.00 426.00 382.00 426.00
C 365.18 427.13 356.11 406.29 343.25 395.75 C 330.39 385.21 326.89 361.38 326.02 343.98 C 325.16 326.58 326.55 299.27 336.31 284.31 C 346.06 269.34 354.11 259.64 368.75 247.75 C 383.40 235.86 399.63 231.98 418.67 229.33 C 437.71 226.68 457.79 235.41 475.00 241.00 Z"/>
</g>
<g fill="None" fill-opacity="0.0" stroke="#E7E4CB" stroke-opacity="0.39" stroke-width="0.3"><path d="
M 426.00 209.00 
C 423.13 208.77 419.87 208.77 417.00 209.00
C 417.32 209.04 419.71 211.49 422.00 211.00 C 424.28 210.51 425.67 209.04 426.00 209.00 Z"/>
</g>
<g fill="None" fill-opacity="0.0" stroke="#DBD1B5" stroke-opacity="0.95" stroke-width="0.3"><path d="
M 382.00 426.00 
C 381.75 425.75 382.00 425.00 382.00 425.00
C 373.45 422.21 368.88 411.74 361.25 406.75 C 353.62 401.76 347.85 392.86 343.00 386.00
C 339.92 381.64 337.51 379.40 336.00 374.00
C 331.76 358.79 327.48 339.61 330.00 322.00
C 331.59 310.89 334.50 301.50 338.00 291.00
C 343.67 273.98 360.71 268.86 371.25 254.25 C 381.79 239.63 399.16 234.47 418.22 234.78 C 437.29 235.09 455.97 234.03 473.00 244.00
C 473.30 242.75 474.83 242.29 475.00 241.00
C 457.79 235.41 437.71 226.68 418.67 229.33 C 399.63 231.98 383.40 235.86 368.75 247.75 C 354.11 259.64 346.06 269.34 336.31 284.31 C 326.55 299.27 325.16 326.58 326.02 343.98 C 326.89 361.38 330.39 385.21 343.25 395.75 C 356.11 406.29 365.18 427.13 382.00 426.00 Z"/>
</g>
<g fill="None" fill-opacity="0.0" stroke="#A7A16A" stroke-opacity="0.96" stroke-width="0.3"><path d="
M 338.00 291.00 
C 339.09 293.53 343.32 292.40 345.00 294.00
C 345.00 295.33 345.00 296.67 345.00 298.00
C 349.68 287.19 362.60 276.38 371.00 267.00
C 362.94 281.91 387.85 284.47 384.00 271.00 C 380.15 257.53 386.76 253.28 400.00 256.00
C 400.34 251.30 406.97 252.72 407.00 248.00
C 411.47 249.84 417.85 249.14 418.00 243.00
C 422.57 244.07 430.20 240.33 432.00 246.00
C 438.82 241.11 445.16 245.28 453.00 246.00
C 456.84 245.67 462.61 246.28 466.75 251.25 C 470.89 256.21 478.31 252.24 483.00 251.00
C 483.57 251.94 484.15 252.82 484.00 254.00
C 484.17 256.99 481.55 260.05 479.00 258.00
C 478.50 257.99 478.00 258.00 478.00 258.00
C 478.66 261.06 485.59 260.19 487.08 263.92 C 488.57 267.64 494.79 268.55 498.00 269.00
C 499.92 267.84 496.68 265.76 499.00 265.00
C 497.12 261.62 495.73 257.47 490.25 255.75 C 484.78 254.03 484.65 247.59 482.00 244.00
C 479.31 242.32 478.19 242.04 475.00 241.00
C 474.83 242.29 473.30 242.75 473.00 244.00
C 455.97 234.03 437.29 235.09 418.22 234.78 C 399.16 234.47 381.79 239.63 371.25 254.25 C 360.71 268.86 343.67 273.98 338.00 291.00 Z"/>
</g>
<g fill="None" fill-opacity="0.0" stroke="#D0CB9C" stroke-opacity="1.00" stroke-width="0.3"><path d="
M 345.00 298.00 
C 344.50 299.14 344.30 299.77 344.00 301.00
C 342.46 307.38 339.52 312.22 339.00 319.00
C 338.70 322.86 338.68 326.26 338.00 330.00
C 345.34 334.82 340.57 347.15 344.00 355.00 C 347.43 362.85 343.61 371.24 341.00 379.00
C 342.57 380.57 345.04 383.04 346.00 385.00
C 350.55 384.18 354.18 389.37 357.00 392.00
C 360.68 395.43 365.30 399.55 370.00 401.00
C 373.89 402.20 383.00 399.01 383.00 408.00
C 388.19 406.54 391.57 412.28 396.00 413.00
C 401.18 413.85 400.43 412.94 405.00 416.00
C 406.10 416.73 409.14 416.66 410.00 418.00
C 419.49 419.22 433.11 417.61 440.01 422.99 C 446.92 428.38 450.01 414.28 456.00 422.00
C 458.47 415.80 463.16 419.27 466.00 422.00
C 461.07 409.30 481.22 409.04 484.25 398.25 C 487.28 387.46 499.62 379.89 510.00 382.00
C 510.00 384.33 510.00 386.67 510.00 389.00
C 538.91 361.36 539.77 309.11 516.00 279.00
C 510.98 273.98 502.50 271.31 499.00 265.00
C 496.68 265.76 499.92 267.84 498.00 269.00
C 494.79 268.55 488.57 267.64 487.08 263.92 C 485.59 260.19 478.66 261.06 478.00 258.00
C 469.75 253.29 467.30 264.01 461.00 263.00 C 454.69 261.99 459.11 249.16 453.00 246.00
C 445.16 245.28 438.82 241.11 432.00 246.00
C 430.20 240.33 422.57 244.07 418.00 243.00
C 417.85 249.14 411.47 249.84 407.00 248.00
C 406.97 252.72 400.34 251.30 400.00 256.00
C 386.76 253.28 380.15 257.53 384.00 271.00 C 387.85 284.47 362.94 281.91 371.00 267.00
C 362.60 276.38 349.68 287.19 345.00 298.00
M 423.00 266.00 
C 416.60 259.29 429.02 254.30 429.00 263.00 C 428.97 271.71 425.71 273.83 423.23 281.23 C 420.75 288.63 413.27 286.92 413.01 279.99 C 412.75 273.06 420.87 271.45 423.00 266.00
M 477.00 279.00 
C 480.23 280.39 480.93 277.68 484.00 277.00
C 488.10 276.09 493.12 277.90 497.00 280.00
C 499.59 281.40 502.51 281.26 501.00 286.00
C 501.94 285.43 502.82 284.85 504.00 285.00
C 504.82 285.15 507.88 283.46 509.00 286.00
C 508.97 276.80 519.87 281.27 520.00 288.00
C 516.11 287.65 516.60 292.31 515.00 294.00
C 514.15 295.64 513.44 297.57 512.00 299.00
C 518.01 296.81 520.43 306.85 514.00 307.00
C 515.83 309.60 522.97 317.07 518.74 320.74 C 514.51 324.41 512.50 328.84 506.00 330.00
C 505.94 331.89 507.42 333.29 508.00 335.00
C 512.49 344.94 510.72 356.94 515.00 367.00
C 510.57 369.90 498.19 366.78 499.01 360.99 C 499.82 355.20 512.10 352.43 502.00 347.00
C 500.54 348.46 499.56 349.72 497.00 349.00
C 498.80 359.39 484.38 354.59 481.00 364.00
C 475.26 358.87 468.44 371.74 464.00 364.00
C 454.27 374.96 453.65 357.27 460.00 352.00
C 454.16 355.13 450.01 347.43 448.00 343.00
C 445.88 343.06 443.77 343.23 442.00 342.00
C 440.48 341.92 436.29 341.82 435.00 342.00
C 431.65 342.46 428.28 345.82 425.00 342.00
C 424.27 347.33 420.15 345.16 416.93 345.07 C 413.71 344.98 410.85 350.54 407.00 347.00
C 406.98 347.50 407.00 348.00 407.00 348.00
C 408.15 351.46 416.85 354.39 413.22 361.22 C 409.60 368.05 415.43 374.29 410.70 379.70 C 405.96 385.10 399.80 383.78 398.03 377.97 C 396.25 372.17 402.56 367.33 405.00 363.00
C 400.31 359.15 394.74 373.79 389.33 370.67 C 383.91 367.55 382.81 356.30 383.33 351.33 C 383.85 346.36 388.37 334.70 395.00 339.00
C 395.00 337.67 395.00 336.33 395.00 335.00
C 391.49 331.55 388.16 326.52 387.00 322.00
C 390.41 319.38 392.17 312.18 398.00 316.00
C 396.16 312.69 398.51 309.66 398.00 306.00
C 401.91 305.34 403.29 303.91 404.00 300.00
C 406.12 300.06 408.22 300.23 410.00 299.00
C 412.58 297.37 415.56 286.10 420.22 290.78 C 424.88 295.46 417.55 299.80 419.00 305.00
C 419.60 305.68 419.65 308.09 420.00 309.00
C 422.93 307.71 425.51 305.44 429.00 306.00
C 432.64 302.15 429.75 295.41 433.75 291.75 C 437.76 288.10 443.04 297.14 447.00 297.00
C 446.78 294.76 452.63 291.11 454.25 289.25 C 455.87 287.39 462.30 283.37 465.00 284.00
C 465.11 281.03 466.80 282.42 468.00 281.00
C 468.84 280.02 468.51 279.02 469.00 278.00
C 470.82 274.21 477.14 274.00 477.00 279.00
M 374.00 344.00 
C 364.95 346.64 360.38 333.71 360.00 327.00 C 359.63 320.28 350.74 307.49 358.75 301.75 C 366.77 296.02 371.42 312.23 371.00 319.00 C 370.57 325.77 373.42 336.25 374.00 344.00
M 525.00 326.00 
C 521.62 321.53 521.34 307.68 528.22 311.78 C 535.11 315.88 530.53 327.41 525.00 326.00
M 525.00 339.00 
C 530.42 346.05 525.27 356.20 522.00 364.00
C 515.30 362.79 511.78 353.68 521.00 352.00
C 519.09 348.88 519.17 342.17 524.00 342.00
C 522.64 338.48 517.70 329.78 525.03 329.03 C 532.36 328.28 530.14 338.27 525.00 339.00
M 448.00 353.00 
C 453.39 356.71 443.30 362.70 447.33 366.67 C 451.36 370.64 444.08 374.33 446.00 379.00 C 447.92 383.67 444.33 392.30 439.78 389.22 C 435.22 386.15 439.15 379.65 439.98 375.98 C 440.80 372.30 440.65 367.12 440.00 363.00 C 439.35 358.87 442.18 349.00 448.00 353.00
M 375.00 355.00 
C 382.59 357.13 377.22 375.73 369.33 371.67 C 361.44 367.60 368.44 353.16 375.00 355.00
M 479.00 379.00 
C 478.41 380.03 477.64 380.26 477.00 381.00
C 474.73 383.60 473.66 385.02 471.00 387.00
C 469.09 389.03 468.59 390.73 469.00 394.00
C 470.19 394.57 475.14 391.16 475.92 395.08 C 476.69 399.01 472.82 400.33 470.00 401.00
C 477.07 413.64 451.84 411.18 463.00 401.00
C 461.43 400.04 459.75 398.68 459.00 397.00
C 456.47 386.86 474.81 382.84 473.00 373.00
C 472.85 372.20 471.66 371.49 472.00 370.00
C 473.27 364.44 482.41 373.08 479.00 379.00
M 440.00 409.00 
C 439.09 409.00 437.89 409.19 437.00 409.00
C 430.81 407.68 435.24 400.93 438.00 399.00
C 438.24 398.68 438.00 398.00 438.00 398.00
C 438.27 397.09 445.92 392.64 444.92 398.08 C 443.91 403.53 449.19 411.25 440.00 409.00 Z"/>
</g>
<g fill="None" fill-opacity="0.0" stroke="#433B12" stroke-opacity="0.98" stroke-width="0.3"><path d="
M 453.00 246.00 
C 459.11 249.16 454.69 261.99 461.00 263.00 C 467.30 264.01 469.75 253.29 478.00 258.00
C 478.00 258.00 478.50 257.99 479.00 258.00
C 480.74 258.05 483.90 254.88 484.00 254.00
C 484.15 252.82 483.57 251.94 483.00 251.00
C 478.31 252.24 470.89 256.21 466.75 251.25 C 462.61 246.28 456.84 245.67 453.00 246.00 Z"/>
</g>
<g fill="None" fill-opacity="0.0" stroke="#DDD3B8" stroke-opacity="0.98" stroke-width="0.3"><path d="
M 499.00 265.00 
C 502.50 271.31 510.98 273.98 516.00 279.00
C 506.17 266.55 495.81 252.64 482.00 244.00
C 484.65 247.59 484.78 254.03 490.25 255.75 C 495.73 257.47 497.12 261.62 499.00 265.00 Z"/>
</g>
<g fill="None" fill-opacity="0.0" stroke="#807A49" stroke-opacity="0.95" stroke-width="0.3"><path d="
M 479.00 258.00 
C 481.55 260.05 484.17 256.99 484.00 254.00
C 483.90 254.88 480.74 258.05 479.00 258.00 Z"/>
</g>
<g fill="None" fill-opacity="0.0" stroke="#B2AD77" stroke-opacity="1.00" stroke-width="0.3"><path d="
M 423.00 266.00 
C 420.87 271.45 412.75 273.06 413.01 279.99 C 413.27 286.92 420.75 288.63 423.23 281.23 C 425.71 273.83 428.97 271.71 429.00 263.00 C 429.02 254.30 416.60 259.29 423.00 266.00 Z"/>
</g>
<g fill="None" fill-opacity="0.0" stroke="#847F54" stroke-opacity="1.00" stroke-width="0.3"><path d="
M 469.00 278.00 
C 470.87 275.20 475.71 275.17 476.00 279.00
C 476.42 278.82 477.00 279.00 477.00 279.00
C 477.14 274.00 470.82 274.21 469.00 278.00 Z"/>
</g>
<g fill="None" fill-opacity="0.0" stroke="#494319" stroke-opacity="1.00" stroke-width="0.3"><path d="
M 469.00 278.00 
C 468.51 279.02 468.84 280.02 468.00 281.00
C 468.10 281.35 473.39 283.35 473.00 285.00
C 472.89 282.76 473.79 279.93 476.00 279.00
C 475.71 275.17 470.87 275.20 469.00 278.00 Z"/>
</g>
<g fill="None" fill-opacity="0.0" stroke="#2E4F01" stroke-opacity="1.00" stroke-width="0.3"><path d="
M 477.00 279.00 
C 477.00 279.00 476.42 278.82 476.00 279.00
C 473.79 279.93 472.89 282.76 473.00 285.00
C 473.39 283.35 468.10 281.35 468.00 281.00
C 466.80 282.42 465.11 281.03 465.00 284.00
C 464.98 284.50 464.96 285.50 465.00 286.00
C 465.07 286.99 464.94 288.00 465.00 289.00
C 456.63 286.18 450.32 295.73 453.00 304.00
C 454.47 306.33 454.75 309.98 455.00 313.00
C 454.00 313.00 453.00 313.00 452.00 313.00
C 451.65 313.05 451.25 313.91 451.00 314.00
C 464.10 316.16 443.33 324.34 441.00 325.00
C 444.14 325.91 442.16 330.37 441.00 333.00
C 440.69 335.34 440.31 340.18 442.00 342.00
C 443.77 343.23 445.88 343.06 448.00 343.00
C 450.01 347.43 454.16 355.13 460.00 352.00
C 453.65 357.27 454.27 374.96 464.00 364.00
C 468.44 371.74 475.26 358.87 481.00 364.00
C 484.38 354.59 498.80 359.39 497.00 349.00
C 499.56 349.72 500.54 348.46 502.00 347.00
C 502.59 346.41 502.67 343.83 503.00 343.00
C 508.02 346.23 510.92 338.66 508.00 335.00
C 507.42 333.29 505.94 331.89 506.00 330.00
C 512.50 328.84 514.51 324.41 518.74 320.74 C 522.97 317.07 515.83 309.60 514.00 307.00
C 520.43 306.85 518.01 296.81 512.00 299.00
C 513.44 297.57 514.15 295.64 515.00 294.00
C 515.00 288.84 510.61 289.79 507.00 291.00
C 509.22 288.64 507.74 283.93 504.00 285.00
C 502.82 284.85 501.94 285.43 501.00 286.00
C 502.51 281.26 499.59 281.40 497.00 280.00
C 495.57 280.34 494.94 284.13 494.00 285.00
C 492.30 280.01 486.15 281.69 484.00 277.00
C 480.93 277.68 480.23 280.39 477.00 279.00
M 468.00 316.00 
C 473.78 312.51 478.57 306.06 486.00 307.00
C 486.99 310.60 483.93 313.00 481.00 314.00
C 485.65 319.77 487.40 320.55 489.98 328.03 C 492.55 335.50 483.15 334.16 483.00 326.00
C 482.63 327.81 476.58 339.41 474.08 332.92 C 471.59 326.42 479.46 322.54 477.00 316.00
C 463.90 320.91 455.54 334.55 442.00 338.00
C 441.80 330.63 450.90 327.61 455.23 323.23 C 459.56 318.85 462.48 310.75 466.25 306.25 C 470.02 301.74 474.28 287.99 476.99 297.01 C 479.70 306.03 467.07 307.96 468.00 316.00
M 487.00 308.00 
C 488.23 305.97 494.56 295.02 498.22 298.78 C 501.89 302.54 491.23 310.34 487.00 308.00 Z"/>
</g>
<g fill="None" fill-opacity="0.0" stroke="#A5A36B" stroke-opacity="1.00" stroke-width="0.3"><path d="
M 497.00 280.00 
C 493.12 277.90 488.10 276.09 484.00 277.00
C 486.15 281.69 492.30 280.01 494.00 285.00
C 494.94 284.13 495.57 280.34 497.00 280.00 Z"/>
</g>
<g fill="None" fill-opacity="0.0" stroke="#A19D64" stroke-opacity="1.00" stroke-width="0.3"><path d="
M 504.00 285.00 
C 507.74 283.93 509.22 288.64 507.00 291.00
C 510.61 289.79 515.00 288.84 515.00 294.00
C 516.60 292.31 516.11 287.65 520.00 288.00
C 519.87 281.27 508.97 276.80 509.00 286.00
C 507.88 283.46 504.82 285.15 504.00 285.00 Z"/>
</g>
<g fill="None" fill-opacity="0.0" stroke="#898557" stroke-opacity="1.00" stroke-width="0.3"><path d="
M 447.00 297.00 
C 447.35 297.27 448.74 298.70 449.00 299.00
C 447.15 291.30 459.68 287.93 465.00 286.00
C 464.96 285.50 464.98 284.50 465.00 284.00
C 462.30 283.37 455.87 287.39 454.25 289.25 C 452.63 291.11 446.78 294.76 447.00 297.00 Z"/>
</g>
<g fill="None" fill-opacity="0.0" stroke="#423F12" stroke-opacity="1.00" stroke-width="0.3"><path d="
M 449.00 299.00 
C 450.35 300.59 450.47 302.64 452.00 304.00
C 452.28 304.25 453.00 304.00 453.00 304.00
C 450.32 295.73 456.63 286.18 465.00 289.00
C 464.94 288.00 465.07 286.99 465.00 286.00
C 459.68 287.93 447.15 291.30 449.00 299.00 Z"/>
</g>
<g fill="None" fill-opacity="0.0" stroke="#ACA66E" stroke-opacity="1.00" stroke-width="0.3"><path d="
M 410.00 299.00 
C 413.47 299.13 416.57 302.27 419.00 305.00
C 417.55 299.80 424.88 295.46 420.22 290.78 C 415.56 286.10 412.58 297.37 410.00 299.00 Z"/>
</g>
<g fill="None" fill-opacity="0.0" stroke="#39320A" stroke-opacity="0.95" stroke-width="0.3"><path d="
M 330.00 322.00 
C 330.04 324.00 329.97 326.00 330.00 328.00
C 332.35 327.74 336.07 329.03 337.00 326.00
C 338.84 322.59 337.21 315.73 338.98 311.98 C 340.75 308.22 342.39 304.52 344.00 301.00
C 344.30 299.77 344.50 299.14 345.00 298.00
C 345.00 296.67 345.00 295.33 345.00 294.00
C 343.32 292.40 339.09 293.53 338.00 291.00
C 334.50 301.50 331.59 310.89 330.00 322.00 Z"/>
</g>
<g fill="None" fill-opacity="0.0" stroke="#8EA236" stroke-opacity="1.00" stroke-width="0.3"><path d="
M 419.00 305.00 
C 416.57 302.27 413.47 299.13 410.00 299.00
C 408.22 300.23 406.12 300.06 404.00 300.00
C 403.29 303.91 401.91 305.34 398.00 306.00
C 398.51 309.66 396.16 312.69 398.00 316.00
C 392.17 312.18 390.41 319.38 387.00 322.00
C 388.16 326.52 391.49 331.55 395.00 335.00
C 395.25 335.25 395.97 335.65 396.00 336.00
C 398.67 338.09 402.76 337.08 405.00 335.00
C 402.47 339.75 406.15 342.72 407.00 347.00
C 410.85 350.54 413.71 344.98 416.93 345.07 C 420.15 345.16 424.27 347.33 425.00 342.00
C 428.28 345.82 431.65 342.46 435.00 342.00
C 436.97 340.30 440.06 335.12 441.00 333.00
C 442.16 330.37 444.14 325.91 441.00 325.00
C 432.40 327.43 427.91 331.65 418.00 331.00 C 408.08 330.35 422.19 320.95 430.01 323.01 C 437.83 325.07 444.49 316.32 451.00 314.00
C 451.25 313.91 451.65 313.05 452.00 313.00
C 452.62 310.19 451.74 306.88 452.00 304.00
C 450.47 302.64 450.35 300.59 449.00 299.00
C 448.74 298.70 447.35 297.27 447.00 297.00
C 443.04 297.14 437.76 288.10 433.75 291.75 C 429.75 295.41 432.64 302.15 429.00 306.00
C 425.51 305.44 422.93 307.71 420.00 309.00
C 419.65 308.09 419.60 305.68 419.00 305.00 Z"/>
</g>
<g fill="None" fill-opacity="0.0" stroke="#183300" stroke-opacity="1.00" stroke-width="0.3"><path d="
M 468.00 316.00 
C 467.07 307.96 479.70 306.03 476.99 297.01 C 474.28 287.99 470.02 301.74 466.25 306.25 C 462.48 310.75 459.56 318.85 455.23 323.23 C 450.90 327.61 441.80 330.63 442.00 338.00
C 455.54 334.55 463.90 320.91 477.00 316.00
C 479.46 322.54 471.59 326.42 474.08 332.92 C 476.58 339.41 482.63 327.81 483.00 326.00
C 483.15 334.16 492.55 335.50 489.98 328.03 C 487.40 320.55 485.65 319.77 481.00 314.00
C 483.93 313.00 486.99 310.60 486.00 307.00
C 478.57 306.06 473.78 312.51 468.00 316.00 Z"/>
</g>
<g fill="None" fill-opacity="0.0" stroke="#183200" stroke-opacity="1.00" stroke-width="0.3"><path d="
M 487.00 308.00 
C 491.23 310.34 501.89 302.54 498.22 298.78 C 494.56 295.02 488.23 305.97 487.00 308.00 Z"/>
</g>
<g fill="None" fill-opacity="0.0" stroke="#7A744A" stroke-opacity="0.98" stroke-width="0.3"><path d="
M 337.00 326.00 
C 337.98 324.64 338.76 320.48 339.00 319.00
C 339.52 312.22 342.46 307.38 344.00 301.00
C 342.39 304.52 340.75 308.22 338.98 311.98 C 337.21 315.73 338.84 322.59 337.00 326.00 Z"/>
</g>
<g fill="None" fill-opacity="0.0" stroke="#ACA66F" stroke-opacity="1.00" stroke-width="0.3"><path d="
M 374.00 344.00 
C 373.42 336.25 370.57 325.77 371.00 319.00 C 371.42 312.23 366.77 296.02 358.75 301.75 C 350.74 307.49 359.63 320.28 360.00 327.00 C 360.38 333.71 364.95 346.64 374.00 344.00 Z"/>
</g>
<g fill="None" fill-opacity="0.0" stroke="#B0AF7A" stroke-opacity="1.00" stroke-width="0.3"><path d="
M 452.00 313.00 
C 453.00 313.00 454.00 313.00 455.00 313.00
C 454.75 309.98 454.47 306.33 453.00 304.00
C 453.00 304.00 452.28 304.25 452.00 304.00
C 451.74 306.88 452.62 310.19 452.00 313.00 Z"/>
</g>
<g fill="None" fill-opacity="0.0" stroke="#ACA66F" stroke-opacity="0.98" stroke-width="0.3"><path d="
M 525.00 326.00 
C 530.53 327.41 535.11 315.88 528.22 311.78 C 521.34 307.68 521.62 321.53 525.00 326.00 Z"/>
</g>
<g fill="None" fill-opacity="0.0" stroke="#1D3701" stroke-opacity="1.00" stroke-width="0.3"><path d="
M 441.00 325.00 
C 443.33 324.34 464.10 316.16 451.00 314.00
C 444.49 316.32 437.83 325.07 430.01 323.01 C 422.19 320.95 408.08 330.35 418.00 331.00 C 427.91 331.65 432.40 327.43 441.00 325.00 Z"/>
</g>
<g fill="None" fill-opacity="0.0" stroke="#A8A26B" stroke-opacity="0.99" stroke-width="0.3"><path d="
M 337.00 326.00 
C 336.07 329.03 332.35 327.74 330.00 328.00
C 329.97 326.00 330.04 324.00 330.00 322.00
C 327.48 339.61 331.76 358.79 336.00 374.00
C 337.03 376.00 339.43 377.43 341.00 379.00
C 343.61 371.24 347.43 362.85 344.00 355.00 C 340.57 347.15 345.34 334.82 338.00 330.00
C 338.68 326.26 338.70 322.86 339.00 319.00
C 338.76 320.48 337.98 324.64 337.00 326.00 Z"/>
</g>
<g fill="None" fill-opacity="0.0" stroke="#FEFFF6" stroke-opacity="0.02" stroke-width="0.3"><path d="
M 306.00 340.00 
C 306.00 334.67 306.00 329.33 306.00 324.00
C 305.52 328.97 305.51 334.96 306.00 340.00 Z"/>
</g>
<g fill="None" fill-opacity="0.0" stroke="#AAA46C" stroke-opacity="0.99" stroke-width="0.3"><path d="
M 525.00 339.00 
C 530.14 338.27 532.36 328.28 525.03 329.03 C 517.70 329.78 522.64 338.48 524.00 342.00
C 519.17 342.17 519.09 348.88 521.00 352.00
C 511.78 353.68 515.30 362.79 522.00 364.00
C 525.27 356.20 530.42 346.05 525.00 339.00 Z"/>
</g>
<g fill="None" fill-opacity="0.0" stroke="#A4A066" stroke-opacity="1.00" stroke-width="0.3"><path d="
M 435.00 342.00 
C 436.29 341.82 440.48 341.92 442.00 342.00
C 440.31 340.18 440.69 335.34 441.00 333.00
C 440.06 335.12 436.97 340.30 435.00 342.00 Z"/>
</g>
<g fill="None" fill-opacity="0.0" stroke="#ABA56F" stroke-opacity="1.00" stroke-width="0.3"><path d="
M 407.00 348.00 
C 404.65 352.50 404.14 355.06 399.25 358.25 C 394.36 361.43 390.00 353.95 395.25 350.25 C 400.51 346.56 396.45 340.84 396.00 336.00
C 395.97 335.65 395.25 335.25 395.00 335.00
C 395.00 336.33 395.00 337.67 395.00 339.00
C 388.37 334.70 383.85 346.36 383.33 351.33 C 382.81 356.30 383.91 367.55 389.33 370.67 C 394.74 373.79 400.31 359.15 405.00 363.00
C 402.56 367.33 396.25 372.17 398.03 377.97 C 399.80 383.78 405.96 385.10 410.70 379.70 C 415.43 374.29 409.60 368.05 413.22 361.22 C 416.85 354.39 408.15 351.46 407.00 348.00 Z"/>
</g>
<g fill="None" fill-opacity="0.0" stroke="#3E370E" stroke-opacity="1.00" stroke-width="0.3"><path d="
M 396.00 336.00 
C 396.45 340.84 400.51 346.56 395.25 350.25 C 390.00 353.95 394.36 361.43 399.25 358.25 C 404.14 355.06 404.65 352.50 407.00 348.00
C 407.00 348.00 406.98 347.50 407.00 347.00
C 406.15 342.72 402.47 339.75 405.00 335.00
C 402.76 337.08 398.67 338.09 396.00 336.00 Z"/>
</g>
<g fill="None" fill-opacity="0.0" stroke="#AAA56D" stroke-opacity="1.00" stroke-width="0.3"><path d="
M 502.00 347.00 
C 512.10 352.43 499.82 355.20 499.01 360.99 C 498.19 366.78 510.57 369.90 515.00 367.00
C 510.72 356.94 512.49 344.94 508.00 335.00
C 510.92 338.66 508.02 346.23 503.00 343.00
C 502.67 343.83 502.59 346.41 502.00 347.00 Z"/>
</g>
<g fill="None" fill-opacity="0.0" stroke="#4C451D" stroke-opacity="1.00" stroke-width="0.3"><path d="
M 448.00 353.00 
C 442.18 349.00 439.35 358.87 440.00 363.00 C 440.65 367.12 440.80 372.30 439.98 375.98 C 439.15 379.65 435.22 386.15 439.78 389.22 C 444.33 392.30 447.92 383.67 446.00 379.00 C 444.08 374.33 451.36 370.64 447.33 366.67 C 443.30 362.70 453.39 356.71 448.00 353.00 Z"/>
</g>
<g fill="None" fill-opacity="0.0" stroke="#AFA973" stroke-opacity="1.00" stroke-width="0.3"><path d="
M 375.00 355.00 
C 368.44 353.16 361.44 367.60 369.33 371.67 C 377.22 375.73 382.59 357.13 375.00 355.00 Z"/>
</g>
<g fill="None" fill-opacity="0.0" stroke="#948F63" stroke-opacity="1.00" stroke-width="0.3"><path d="
M 472.00 370.00 
C 474.47 364.33 480.13 375.50 479.00 379.00
C 482.41 373.08 473.27 364.44 472.00 370.00 Z"/>
</g>
<g fill="None" fill-opacity="0.0" stroke="#696339" stroke-opacity="1.00" stroke-width="0.3"><path d="
M 472.00 370.00 
C 471.66 371.49 472.85 372.20 473.00 373.00
C 472.70 372.84 477.10 370.11 478.00 373.00
C 477.08 375.72 478.34 378.13 477.00 381.00
C 477.64 380.26 478.41 380.03 479.00 379.00
C 480.13 375.50 474.47 364.33 472.00 370.00 Z"/>
</g>
<g fill="None" fill-opacity="0.0" stroke="#494219" stroke-opacity="1.00" stroke-width="0.3"><path d="
M 473.00 373.00 
C 474.81 382.84 456.47 386.86 459.00 397.00
C 461.24 401.88 467.04 396.97 468.00 394.00
C 467.58 391.74 468.31 389.28 468.00 387.00
C 469.00 387.00 470.00 387.00 471.00 387.00
C 473.66 385.02 474.73 383.60 477.00 381.00
C 478.34 378.13 477.08 375.72 478.00 373.00
C 477.10 370.11 472.70 372.84 473.00 373.00 Z"/>
</g>
<g fill="None" fill-opacity="0.0" stroke="#ABA570" stroke-opacity="0.70" stroke-width="0.3"><path d="
M 343.00 386.00 
C 343.35 386.09 344.67 385.42 346.00 386.00
C 345.84 385.94 346.00 385.00 346.00 385.00
C 345.04 383.04 342.57 380.57 341.00 379.00
C 339.43 377.43 337.03 376.00 336.00 374.00
C 337.51 379.40 339.92 381.64 343.00 386.00 Z"/>
</g>
<g fill="None" fill-opacity="0.0" stroke="#A9A36D" stroke-opacity="0.96" stroke-width="0.3"><path d="
M 410.00 418.00 
C 410.23 418.35 409.97 419.50 410.00 420.00
C 411.41 421.82 414.03 422.68 415.00 425.00
C 417.49 426.02 419.32 425.42 422.00 425.00
C 426.26 424.34 435.96 426.59 440.02 424.02 C 444.09 421.46 457.78 425.46 452.00 428.00
C 451.58 428.18 451.00 428.00 451.00 428.00
C 450.42 428.31 449.54 429.71 449.00 430.00
C 456.71 427.43 464.21 425.65 472.08 421.08 C 479.94 416.51 484.30 411.79 489.77 404.77 C 495.24 397.75 503.52 395.65 510.00 390.00
C 510.00 390.00 509.95 389.50 510.00 389.00
C 510.00 386.67 510.00 384.33 510.00 382.00
C 499.62 379.89 487.28 387.46 484.25 398.25 C 481.22 409.04 461.07 409.30 466.00 422.00
C 463.16 419.27 458.47 415.80 456.00 422.00
C 450.01 414.28 446.92 428.38 440.01 422.99 C 433.11 417.61 419.49 419.22 410.00 418.00 Z"/>
</g>
<g fill="None" fill-opacity="0.0" stroke="#332C05" stroke-opacity="0.87" stroke-width="0.3"><path d="
M 343.00 386.00 
C 347.85 392.86 353.62 401.76 361.25 406.75 C 368.88 411.74 373.45 422.21 382.00 425.00
C 384.26 425.00 385.90 424.57 388.00 424.00
C 387.02 421.44 391.12 417.12 393.00 420.00
C 398.47 421.28 397.68 425.35 401.00 428.00
C 404.78 428.42 407.92 430.16 412.00 430.00
C 412.50 429.98 413.50 430.00 414.00 430.00
C 415.97 428.06 416.27 426.48 414.00 425.00
C 411.49 424.03 410.15 422.56 410.00 420.00
C 409.97 419.50 410.23 418.35 410.00 418.00
C 409.14 416.66 406.10 416.73 405.00 416.00
C 402.96 416.38 402.67 421.34 399.32 419.66 C 395.97 417.98 397.62 415.13 396.00 413.00
C 391.57 412.28 388.19 406.54 383.00 408.00
C 380.73 408.64 377.66 416.11 374.75 411.24 C 371.85 406.38 374.51 404.32 370.00 401.00
C 365.30 399.55 360.68 395.43 357.00 392.00
C 353.62 389.75 349.74 387.39 346.00 386.00
C 344.67 385.42 343.35 386.09 343.00 386.00 Z"/>
</g>
<g fill="None" fill-opacity="0.0" stroke="#635C32" stroke-opacity="0.98" stroke-width="0.3"><path d="
M 346.00 386.00 
C 349.74 387.39 353.62 389.75 357.00 392.00
C 354.18 389.37 350.55 384.18 346.00 385.00
C 346.00 385.00 345.84 385.94 346.00 386.00 Z"/>
</g>
<g fill="None" fill-opacity="0.0" stroke="#7A7348" stroke-opacity="1.00" stroke-width="0.3"><path d="
M 468.00 394.00 
C 468.05 393.85 469.00 394.00 469.00 394.00
C 468.59 390.73 469.09 389.03 471.00 387.00
C 470.00 387.00 469.00 387.00 468.00 387.00
C 468.31 389.28 467.58 391.74 468.00 394.00 Z"/>
</g>
<g fill="None" fill-opacity="0.0" stroke="#D6CCAF" stroke-opacity="0.98" stroke-width="0.3"><path d="
M 449.00 430.00 
C 445.42 431.19 442.48 432.65 439.00 431.00
C 438.50 430.97 437.50 431.00 437.00 431.00
C 435.39 431.00 433.59 431.23 432.00 431.00
C 430.83 431.15 428.79 431.93 427.00 432.00
C 420.59 432.93 417.78 431.93 412.00 430.00
C 407.92 430.16 404.78 428.42 401.00 428.00
C 394.75 427.30 389.80 427.21 384.00 427.00
C 391.51 435.70 410.77 432.91 421.33 435.67 C 431.88 438.44 448.99 433.42 458.97 429.97 C 468.96 426.53 480.27 420.08 487.25 412.25 C 494.23 404.42 506.38 400.02 510.00 390.00
C 503.52 395.65 495.24 397.75 489.77 404.77 C 484.30 411.79 479.94 416.51 472.08 421.08 C 464.21 425.65 456.71 427.43 449.00 430.00 Z"/>
</g>
<g fill="None" fill-opacity="0.0" stroke="#AEA974" stroke-opacity="1.00" stroke-width="0.3"><path d="
M 469.00 394.00 
C 469.00 394.00 468.05 393.85 468.00 394.00
C 467.04 396.97 461.24 401.88 459.00 397.00
C 459.75 398.68 461.43 400.04 463.00 401.00
C 451.84 411.18 477.07 413.64 470.00 401.00
C 472.82 400.33 476.69 399.01 475.92 395.08 C 475.14 391.16 470.19 394.57 469.00 394.00 Z"/>
</g>
<g fill="None" fill-opacity="0.0" stroke="#969165" stroke-opacity="1.00" stroke-width="0.3"><path d="
M 438.00 398.00 
C 439.76 396.52 442.22 396.83 444.00 398.00
C 441.20 401.70 448.58 407.82 442.00 409.00
C 441.50 409.02 440.50 409.00 440.00 409.00
C 449.19 411.25 443.91 403.53 444.92 398.08 C 445.92 392.64 438.27 397.09 438.00 398.00 Z"/>
</g>
<g fill="None" fill-opacity="0.0" stroke="#676137" stroke-opacity="1.00" stroke-width="0.3"><path d="
M 438.00 398.00 
C 438.00 398.00 438.24 398.68 438.00 399.00
C 436.79 400.59 435.11 401.94 435.00 404.00
C 435.18 402.95 439.27 402.11 438.00 400.00
C 442.18 400.16 446.02 405.82 442.00 409.00
C 448.58 407.82 441.20 401.70 444.00 398.00
C 442.22 396.83 439.76 396.52 438.00 398.00 Z"/>
</g>
<g fill="None" fill-opacity="0.0" stroke="#948E63" stroke-opacity="1.00" stroke-width="0.3"><path d="
M 437.00 409.00 
C 435.51 408.47 434.93 405.28 435.00 404.00
C 435.11 401.94 436.79 400.59 438.00 399.00
C 435.24 400.93 430.81 407.68 437.00 409.00 Z"/>
</g>
<g fill="None" fill-opacity="0.0" stroke="#9E9861" stroke-opacity="0.96" stroke-width="0.3"><path d="
M 370.00 401.00 
C 374.51 404.32 371.85 406.38 374.75 411.24 C 377.66 416.11 380.73 408.64 383.00 408.00
C 383.00 399.01 373.89 402.20 370.00 401.00 Z"/>
</g>
<g fill="None" fill-opacity="0.0" stroke="#3F380F" stroke-opacity="1.00" stroke-width="0.3"><path d="
M 435.00 404.00 
C 434.93 405.28 435.51 408.47 437.00 409.00
C 437.89 409.19 439.09 409.00 440.00 409.00
C 440.50 409.00 441.50 409.02 442.00 409.00
C 446.02 405.82 442.18 400.16 438.00 400.00
C 439.27 402.11 435.18 402.95 435.00 404.00 Z"/>
</g>
<g fill="None" fill-opacity="0.0" stroke="#96905A" stroke-opacity="0.87" stroke-width="0.3"><path d="
M 396.00 413.00 
C 397.62 415.13 395.97 417.98 399.32 419.66 C 402.67 421.34 402.96 416.38 405.00 416.00
C 400.43 412.94 401.18 413.85 396.00 413.00 Z"/>
</g>
<g fill="None" fill-opacity="0.0" stroke="#6C6439" stroke-opacity="0.94" stroke-width="0.3"><path d="
M 382.00 425.00 
C 382.00 425.00 381.75 425.75 382.00 426.00
C 382.00 426.00 382.50 425.96 383.00 426.00
C 385.30 426.17 386.88 425.44 389.00 425.00
C 388.30 422.30 389.80 419.17 393.00 420.00
C 391.12 417.12 387.02 421.44 388.00 424.00
C 385.90 424.57 384.26 425.00 382.00 425.00 Z"/>
</g>
<g fill="None" fill-opacity="0.0" stroke="#9D9662" stroke-opacity="0.94" stroke-width="0.3"><path d="
M 383.00 426.00 
C 383.26 426.12 383.78 426.74 384.00 427.00
C 389.80 427.21 394.75 427.30 401.00 428.00
C 397.68 425.35 398.47 421.28 393.00 420.00
C 389.80 419.17 388.30 422.30 389.00 425.00
C 386.88 425.44 385.30 426.17 383.00 426.00 Z"/>
</g>
<g fill="None" fill-opacity="0.0" stroke="#7F7844" stroke-opacity="0.95" stroke-width="0.3"><path d="
M 414.00 425.00 
C 414.44 425.17 415.00 425.00 415.00 425.00
C 414.03 422.68 411.41 421.82 410.00 420.00
C 410.15 422.56 411.49 424.03 414.00 425.00 Z"/>
</g>
<g fill="None" fill-opacity="0.0" stroke="#655E2F" stroke-opacity="0.89" stroke-width="0.3"><path d="
M 422.00 425.00 
C 418.90 426.82 419.80 430.64 415.00 430.00
C 415.26 430.12 415.70 430.78 416.00 431.00
C 419.03 431.88 422.12 430.59 421.00 427.00
C 424.60 425.65 428.13 426.58 430.00 430.00
C 428.98 426.03 435.18 426.33 437.00 426.00
C 438.85 425.67 455.84 423.49 452.00 428.00
C 457.78 425.46 444.09 421.46 440.02 424.02 C 435.96 426.59 426.26 424.34 422.00 425.00 Z"/>
</g>
<g fill="None" fill-opacity="0.0" stroke="#393107" stroke-opacity="0.72" stroke-width="0.3"><path d="
M 414.00 430.00 
C 414.50 430.00 415.00 430.00 415.00 430.00
C 419.80 430.64 418.90 426.82 422.00 425.00
C 419.32 425.42 417.49 426.02 415.00 425.00
C 415.00 425.00 414.44 425.17 414.00 425.00
C 416.27 426.48 415.97 428.06 414.00 430.00 Z"/>
</g>
<g fill="None" fill-opacity="0.0" stroke="#393009" stroke-opacity="0.87" stroke-width="0.3"><path d="
M 437.00 426.00 
C 436.35 426.68 436.18 430.30 437.00 431.00
C 437.50 431.00 438.50 430.97 439.00 431.00
C 444.18 431.36 446.31 427.58 451.00 428.00
C 451.00 428.00 451.58 428.18 452.00 428.00
C 455.84 423.49 438.85 425.67 437.00 426.00 Z"/>
</g>
<g fill="None" fill-opacity="0.0" stroke="#8D8753" stroke-opacity="0.85" stroke-width="0.3"><path d="
M 416.00 431.00 
C 418.47 432.82 423.73 432.13 427.00 432.00
C 428.79 431.93 430.83 431.15 432.00 431.00
C 430.50 430.78 430.97 430.93 430.00 430.00
C 428.13 426.58 424.60 425.65 421.00 427.00
C 422.12 430.59 419.03 431.88 416.00 431.00 Z"/>
</g>
<g fill="None" fill-opacity="0.0" stroke="#373007" stroke-opacity="0.66" stroke-width="0.3"><path d="
M 430.00 430.00 
C 430.97 430.93 430.50 430.78 432.00 431.00
C 433.59 431.23 435.39 431.00 437.00 431.00
C 436.18 430.30 436.35 426.68 437.00 426.00
C 435.18 426.33 428.98 426.03 430.00 430.00 Z"/>
</g>
<g fill="None" fill-opacity="0.0" stroke="#817958" stroke-opacity="0.99" stroke-width="0.3"><path d="
M 439.00 431.00 
C 442.48 432.65 445.42 431.19 449.00 430.00
C 449.54 429.71 450.42 428.31 451.00 428.00
C 446.31 427.58 444.18 431.36 439.00 431.00 Z"/>
</g>
<g fill="None" fill-opacity="0.0" stroke="#ACA481" stroke-opacity="0.99" stroke-width="0.3"><path d="
M 427.00 432.00 
C 423.73 432.13 418.47 432.82 416.00 431.00
C 415.70 430.78 415.26 430.12 415.00 430.00
C 415.00 430.00 414.50 430.00 414.00 430.00
C 413.50 430.00 412.50 429.98 412.00 430.00
C 417.78 431.93 420.59 432.93 427.00 432.00 Z"/>
</g>
<g fill="#000000" fill-opacity="0.00" stroke="None">
<path d="
M 0.00 866.00 
L 1154.00 866.00
L 1154.00 0.00
L 0.00 0.00
L 0.00 866.00
M 306.00 340.00 
C 305.51 334.96 305.52 328.97 306.00 324.00
C 306.00 295.37 325.46 269.21 342.30 247.30 C 359.14 225.39 389.79 211.16 417.00 209.00
C 419.87 208.77 423.13 208.77 426.00 209.00
C 450.17 210.92 478.18 214.98 497.70 229.30 C 517.21 243.63 531.60 256.76 541.92 278.08 C 552.25 299.39 560.67 328.05 550.22 350.22 C 539.77 372.40 533.97 392.50 518.25 411.25 C 502.53 429.99 485.73 440.00 463.31 449.31 C 440.88 458.61 407.96 454.40 385.98 446.02 C 363.99 437.65 343.72 429.14 329.75 409.25 C 315.78 389.36 306.00 364.89 306.00 340.00 Z"/>
</g>
<g fill="#EDEADE" fill-opacity="0.94" stroke="None">
<path d="
M 306.00 324.00 
C 306.00 329.33 306.00 334.67 306.00 340.00
C 306.00 364.89 315.78 389.36 329.75 409.25 C 343.72 429.14 363.99 437.65 385.98 446.02 C 407.96 454.40 440.88 458.61 463.31 449.31 C 485.73 440.00 502.53 429.99 518.25 411.25 C 533.97 392.50 539.77 372.40 550.22 350.22 C 560.67 328.05 552.25 299.39 541.92 278.08 C 531.60 256.76 517.21 243.63 497.70 229.30 C 478.18 214.98 450.17 210.92 426.00 209.00
C 425.67 209.04 424.28 210.51 422.00 211.00 C 419.71 211.49 417.32 209.04 417.00 209.00
C 389.79 211.16 359.14 225.39 342.30 247.30 C 325.46 269.21 306.00 295.37 306.00 324.00
M 475.00 241.00 
C 478.19 242.04 479.31 242.32 482.00 244.00
C 495.81 252.64 506.17 266.55 516.00 279.00
C 539.77 309.11 538.91 361.36 510.00 389.00
C 509.95 389.50 510.00 390.00 510.00 390.00
C 506.38 400.02 494.23 404.42 487.25 412.25 C 480.27 420.08 468.96 426.53 458.97 429.97 C 448.99 433.42 431.88 438.44 421.33 435.67 C 410.77 432.91 391.51 435.70 384.00 427.00
C 383.78 426.74 383.26 426.12 383.00 426.00
C 382.50 425.96 382.00 426.00 382.00 426.00
C 365.18 427.13 356.11 406.29 343.25 395.75 C 330.39 385.21 326.89 361.38 326.02 343.98 C 325.16 326.58 326.55 299.27 336.31 284.31 C 346.06 269.34 354.11 259.64 368.75 247.75 C 383.40 235.86 399.63 231.98 418.67 229.33 C 437.71 226.68 457.79 235.41 475.00 241.00 Z"/>
</g>
<g fill="#E7E4CB" fill-opacity="0.39" stroke="None">
<path d="
M 426.00 209.00 
C 423.13 208.77 419.87 208.77 417.00 209.00
C 417.32 209.04 419.71 211.49 422.00 211.00 C 424.28 210.51 425.67 209.04 426.00 209.00 Z"/>
</g>
<g fill="#DBD1B5" fill-opacity="0.95" stroke="None">
<path d="
M 382.00 426.00 
C 381.75 425.75 382.00 425.00 382.00 425.00
C 373.45 422.21 368.88 411.74 361.25 406.75 C 353.62 401.76 347.85 392.86 343.00 386.00
C 339.92 381.64 337.51 379.40 336.00 374.00
C 331.76 358.79 327.48 339.61 330.00 322.00
C 331.59 310.89 334.50 301.50 338.00 291.00
C 343.67 273.98 360.71 268.86 371.25 254.25 C 381.79 239.63 399.16 234.47 418.22 234.78 C 437.29 235.09 455.97 234.03 473.00 244.00
C 473.30 242.75 474.83 242.29 475.00 241.00
C 457.79 235.41 437.71 226.68 418.67 229.33 C 399.63 231.98 383.40 235.86 368.75 247.75 C 354.11 259.64 346.06 269.34 336.31 284.31 C 326.55 299.27 325.16 326.58 326.02 343.98 C 326.89 361.38 330.39 385.21 343.25 395.75 C 356.11 406.29 365.18 427.13 382.00 426.00 Z"/>
</g>
<g fill="#A7A16A" fill-opacity="0.96" stroke="None">
<path d="
M 338.00 291.00 
C 339.09 293.53 343.32 292.40 345.00 294.00
C 345.00 295.33 345.00 296.67 345.00 298.00
C 349.68 287.19 362.60 276.38 371.00 267.00
C 362.94 281.91 387.85 284.47 384.00 271.00 C 380.15 257.53 386.76 253.28 400.00 256.00
C 400.34 251.30 406.97 252.72 407.00 248.00
C 411.47 249.84 417.85 249.14 418.00 243.00
C 422.57 244.07 430.20 240.33 432.00 246.00
C 438.82 241.11 445.16 245.28 453.00 246.00
C 456.84 245.67 462.61 246.28 466.75 251.25 C 470.89 256.21 478.31 252.24 483.00 251.00
C 483.57 251.94 484.15 252.82 484.00 254.00
C 484.17 256.99 481.55 260.05 479.00 258.00
C 478.50 257.99 478.00 258.00 478.00 258.00
C 478.66 261.06 485.59 260.19 487.08 263.92 C 488.57 267.64 494.79 268.55 498.00 269.00
C 499.92 267.84 496.68 265.76 499.00 265.00
C 497.12 261.62 495.73 257.47 490.25 255.75 C 484.78 254.03 484.65 247.59 482.00 244.00
C 479.31 242.32 478.19 242.04 475.00 241.00
C 474.83 242.29 473.30 242.75 473.00 244.00
C 455.97 234.03 437.29 235.09 418.22 234.78 C 399.16 234.47 381.79 239.63 371.25 254.25 C 360.71 268.86 343.67 273.98 338.00 291.00 Z"/>
</g>
<g fill="#D0CB9C" fill-opacity="1.00" stroke="None">
<path d="
M 345.00 298.00 
C 344.50 299.14 344.30 299.77 344.00 301.00
C 342.46 307.38 339.52 312.22 339.00 319.00
C 338.70 322.86 338.68 326.26 338.00 330.00
C 345.34 334.82 340.57 347.15 344.00 355.00 C 347.43 362.85 343.61 371.24 341.00 379.00
C 342.57 380.57 345.04 383.04 346.00 385.00
C 350.55 384.18 354.18 389.37 357.00 392.00
C 360.68 395.43 365.30 399.55 370.00 401.00
C 373.89 402.20 383.00 399.01 383.00 408.00
C 388.19 406.54 391.57 412.28 396.00 413.00
C 401.18 413.85 400.43 412.94 405.00 416.00
C 406.10 416.73 409.14 416.66 410.00 418.00
C 419.49 419.22 433.11 417.61 440.01 422.99 C 446.92 428.38 450.01 414.28 456.00 422.00
C 458.47 415.80 463.16 419.27 466.00 422.00
C 461.07 409.30 481.22 409.04 484.25 398.25 C 487.28 387.46 499.62 379.89 510.00 382.00
C 510.00 384.33 510.00 386.67 510.00 389.00
C 538.91 361.36 539.77 309.11 516.00 279.00
C 510.98 273.98 502.50 271.31 499.00 265.00
C 496.68 265.76 499.92 267.84 498.00 269.00
C 494.79 268.55 488.57 267.64 487.08 263.92 C 485.59 260.19 478.66 261.06 478.00 258.00
C 469.75 253.29 467.30 264.01 461.00 263.00 C 454.69 261.99 459.11 249.16 453.00 246.00
C 445.16 245.28 438.82 241.11 432.00 246.00
C 430.20 240.33 422.57 244.07 418.00 243.00
C 417.85 249.14 411.47 249.84 407.00 248.00
C 406.97 252.72 400.34 251.30 400.00 256.00
C 386.76 253.28 380.15 257.53 384.00 271.00 C 387.85 284.47 362.94 281.91 371.00 267.00
C 362.60 276.38 349.68 287.19 345.00 298.00
M 423.00 266.00 
C 416.60 259.29 429.02 254.30 429.00 263.00 C 428.97 271.71 425.71 273.83 423.23 281.23 C 420.75 288.63 413.27 286.92 413.01 279.99 C 412.75 273.06 420.87 271.45 423.00 266.00
M 477.00 279.00 
C 480.23 280.39 480.93 277.68 484.00 277.00
C 488.10 276.09 493.12 277.90 497.00 280.00
C 499.59 281.40 502.51 281.26 501.00 286.00
C 501.94 285.43 502.82 284.85 504.00 285.00
C 504.82 285.15 507.88 283.46 509.00 286.00
C 508.97 276.80 519.87 281.27 520.00 288.00
C 516.11 287.65 516.60 292.31 515.00 294.00
C 514.15 295.64 513.44 297.57 512.00 299.00
C 518.01 296.81 520.43 306.85 514.00 307.00
C 515.83 309.60 522.97 317.07 518.74 320.74 C 514.51 324.41 512.50 328.84 506.00 330.00
C 505.94 331.89 507.42 333.29 508.00 335.00
C 512.49 344.94 510.72 356.94 515.00 367.00
C 510.57 369.90 498.19 366.78 499.01 360.99 C 499.82 355.20 512.10 352.43 502.00 347.00
C 500.54 348.46 499.56 349.72 497.00 349.00
C 498.80 359.39 484.38 354.59 481.00 364.00
C 475.26 358.87 468.44 371.74 464.00 364.00
C 454.27 374.96 453.65 357.27 460.00 352.00
C 454.16 355.13 450.01 347.43 448.00 343.00
C 445.88 343.06 443.77 343.23 442.00 342.00
C 440.48 341.92 436.29 341.82 435.00 342.00
C 431.65 342.46 428.28 345.82 425.00 342.00
C 424.27 347.33 420.15 345.16 416.93 345.07 C 413.71 344.98 410.85 350.54 407.00 347.00
C 406.98 347.50 407.00 348.00 407.00 348.00
C 408.15 351.46 416.85 354.39 413.22 361.22 C 409.60 368.05 415.43 374.29 410.70 379.70 C 405.96 385.10 399.80 383.78 398.03 377.97 C 396.25 372.17 402.56 367.33 405.00 363.00
C 400.31 359.15 394.74 373.79 389.33 370.67 C 383.91 367.55 382.81 356.30 383.33 351.33 C 383.85 346.36 388.37 334.70 395.00 339.00
C 395.00 337.67 395.00 336.33 395.00 335.00
C 391.49 331.55 388.16 326.52 387.00 322.00
C 390.41 319.38 392.17 312.18 398.00 316.00
C 396.16 312.69 398.51 309.66 398.00 306.00
C 401.91 305.34 403.29 303.91 404.00 300.00
C 406.12 300.06 408.22 300.23 410.00 299.00
C 412.58 297.37 415.56 286.10 420.22 290.78 C 424.88 295.46 417.55 299.80 419.00 305.00
C 419.60 305.68 419.65 308.09 420.00 309.00
C 422.93 307.71 425.51 305.44 429.00 306.00
C 432.64 302.15 429.75 295.41 433.75 291.75 C 437.76 288.10 443.04 297.14 447.00 297.00
C 446.78 294.76 452.63 291.11 454.25 289.25 C 455.87 287.39 462.30 283.37 465.00 284.00
C 465.11 281.03 466.80 282.42 468.00 281.00
C 468.84 280.02 468.51 279.02 469.00 278.00
C 470.82 274.21 477.14 274.00 477.00 279.00
M 374.00 344.00 
C 364.95 346.64 360.38 333.71 360.00 327.00 C 359.63 320.28 350.74 307.49 358.75 301.75 C 366.77 296.02 371.42 312.23 371.00 319.00 C 370.57 325.77 373.42 336.25 374.00 344.00
M 525.00 326.00 
C 521.62 321.53 521.34 307.68 528.22 311.78 C 535.11 315.88 530.53 327.41 525.00 326.00
M 525.00 339.00 
C 530.42 346.05 525.27 356.20 522.00 364.00
C 515.30 362.79 511.78 353.68 521.00 352.00
C 519.09 348.88 519.17 342.17 524.00 342.00
C 522.64 338.48 517.70 329.78 525.03 329.03 C 532.36 328.28 530.14 338.27 525.00 339.00
M 448.00 353.00 
C 453.39 356.71 443.30 362.70 447.33 366.67 C 451.36 370.64 444.08 374.33 446.00 379.00 C 447.92 383.67 444.33 392.30 439.78 389.22 C 435.22 386.15 439.15 379.65 439.98 375.98 C 440.80 372.30 440.65 367.12 440.00 363.00 C 439.35 358.87 442.18 349.00 448.00 353.00
M 375.00 355.00 
C 382.59 357.13 377.22 375.73 369.33 371.67 C 361.44 367.60 368.44 353.16 375.00 355.00
M 479.00 379.00 
C 478.41 380.03 477.64 380.26 477.00 381.00
C 474.73 383.60 473.66 385.02 471.00 387.00
C 469.09 389.03 468.59 390.73 469.00 394.00
C 470.19 394.57 475.14 391.16 475.92 395.08 C 476.69 399.01 472.82 400.33 470.00 401.00
C 477.07 413.64 451.84 411.18 463.00 401.00
C 461.43 400.04 459.75 398.68 459.00 397.00
C 456.47 386.86 474.81 382.84 473.00 373.00
C 472.85 372.20 471.66 371.49 472.00 370.00
C 473.27 364.44 482.41 373.08 479.00 379.00
M 440.00 409.00 
C 439.09 409.00 437.89 409.19 437.00 409.00
C 430.81 407.68 435.24 400.93 438.00 399.00
C 438.24 398.68 438.00 398.00 438.00 398.00
C 438.27 397.09 445.92 392.64 444.92 398.08 C 443.91 403.53 449.19 411.25 440.00 409.00 Z"/>
</g>
<g fill="#433B12" fill-opacity="0.98" stroke="None">
<path d="
M 453.00 246.00 
C 459.11 249.16 454.69 261.99 461.00 263.00 C 467.30 264.01 469.75 253.29 478.00 258.00
C 478.00 258.00 478.50 257.99 479.00 258.00
C 480.74 258.05 483.90 254.88 484.00 254.00
C 484.15 252.82 483.57 251.94 483.00 251.00
C 478.31 252.24 470.89 256.21 466.75 251.25 C 462.61 246.28 456.84 245.67 453.00 246.00 Z"/>
</g>
<g fill="#DDD3B8" fill-opacity="0.98" stroke="None">
<path d="
M 499.00 265.00 
C 502.50 271.31 510.98 273.98 516.00 279.00
C 506.17 266.55 495.81 252.64 482.00 244.00
C 484.65 247.59 484.78 254.03 490.25 255.75 C 495.73 257.47 497.12 261.62 499.00 265.00 Z"/>
</g>
<g fill="#807A49" fill-opacity="0.95" stroke="None">
<path d="
M 479.00 258.00 
C 481.55 260.05 484.17 256.99 484.00 254.00
C 483.90 254.88 480.74 258.05 479.00 258.00 Z"/>
</g>
<g fill="#B2AD77" fill-opacity="1.00" stroke="None">
<path d="
M 423.00 266.00 
C 420.87 271.45 412.75 273.06 413.01 279.99 C 413.27 286.92 420.75 288.63 423.23 281.23 C 425.71 273.83 428.97 271.71 429.00 263.00 C 429.02 254.30 416.60 259.29 423.00 266.00 Z"/>
</g>
<g fill="#847F54" fill-opacity="1.00" stroke="None">
<path d="
M 469.00 278.00 
C 470.87 275.20 475.71 275.17 476.00 279.00
C 476.42 278.82 477.00 279.00 477.00 279.00
C 477.14 274.00 470.82 274.21 469.00 278.00 Z"/>
</g>
<g fill="#494319" fill-opacity="1.00" stroke="None">
<path d="
M 469.00 278.00 
C 468.51 279.02 468.84 280.02 468.00 281.00
C 468.10 281.35 473.39 283.35 473.00 285.00
C 472.89 282.76 473.79 279.93 476.00 279.00
C 475.71 275.17 470.87 275.20 469.00 278.00 Z"/>
</g>
<g fill="#2E4F01" fill-opacity="1.00" stroke="None">
<path d="
M 477.00 279.00 
C 477.00 279.00 476.42 278.82 476.00 279.00
C 473.79 279.93 472.89 282.76 473.00 285.00
C 473.39 283.35 468.10 281.35 468.00 281.00
C 466.80 282.42 465.11 281.03 465.00 284.00
C 464.98 284.50 464.96 285.50 465.00 286.00
C 465.07 286.99 464.94 288.00 465.00 289.00
C 456.63 286.18 450.32 295.73 453.00 304.00
C 454.47 306.33 454.75 309.98 455.00 313.00
C 454.00 313.00 453.00 313.00 452.00 313.00
C 451.65 313.05 451.25 313.91 451.00 314.00
C 464.10 316.16 443.33 324.34 441.00 325.00
C 444.14 325.91 442.16 330.37 441.00 333.00
C 440.69 335.34 440.31 340.18 442.00 342.00
C 443.77 343.23 445.88 343.06 448.00 343.00
C 450.01 347.43 454.16 355.13 460.00 352.00
C 453.65 357.27 454.27 374.96 464.00 364.00
C 468.44 371.74 475.26 358.87 481.00 364.00
C 484.38 354.59 498.80 359.39 497.00 349.00
C 499.56 349.72 500.54 348.46 502.00 347.00
C 502.59 346.41 502.67 343.83 503.00 343.00
C 508.02 346.23 510.92 338.66 508.00 335.00
C 507.42 333.29 505.94 331.89 506.00 330.00
C 512.50 328.84 514.51 324.41 518.74 320.74 C 522.97 317.07 515.83 309.60 514.00 307.00
C 520.43 306.85 518.01 296.81 512.00 299.00
C 513.44 297.57 514.15 295.64 515.00 294.00
C 515.00 288.84 510.61 289.79 507.00 291.00
C 509.22 288.64 507.74 283.93 504.00 285.00
C 502.82 284.85 501.94 285.43 501.00 286.00
C 502.51 281.26 499.59 281.40 497.00 280.00
C 495.57 280.34 494.94 284.13 494.00 285.00
C 492.30 280.01 486.15 281.69 484.00 277.00
C 480.93 277.68 480.23 280.39 477.00 279.00
M 468.00 316.00 
C 473.78 312.51 478.57 306.06 486.00 307.00
C 486.99 310.60 483.93 313.00 481.00 314.00
C 485.65 319.77 487.40 320.55 489.98 328.03 C 492.55 335.50 483.15 334.16 483.00 326.00
C 482.63 327.81 476.58 339.41 474.08 332.92 C 471.59 326.42 479.46 322.54 477.00 316.00
C 463.90 320.91 455.54 334.55 442.00 338.00
C 441.80 330.63 450.90 327.61 455.23 323.23 C 459.56 318.85 462.48 310.75 466.25 306.25 C 470.02 301.74 474.28 287.99 476.99 297.01 C 479.70 306.03 467.07 307.96 468.00 316.00
M 487.00 308.00 
C 488.23 305.97 494.56 295.02 498.22 298.78 C 501.89 302.54 491.23 310.34 487.00 308.00 Z"/>
</g>
<g fill="#A5A36B" fill-opacity="1.00" stroke="None">
<path d="
M 497.00 280.00 
C 493.12 277.90 488.10 276.09 484.00 277.00
C 486.15 281.69 492.30 280.01 494.00 285.00
C 494.94 284.13 495.57 280.34 497.00 280.00 Z"/>
</g>
<g fill="#A19D64" fill-opacity="1.00" stroke="None">
<path d="
M 504.00 285.00 
C 507.74 283.93 509.22 288.64 507.00 291.00
C 510.61 289.79 515.00 288.84 515.00 294.00
C 516.60 292.31 516.11 287.65 520.00 288.00
C 519.87 281.27 508.97 276.80 509.00 286.00
C 507.88 283.46 504.82 285.15 504.00 285.00 Z"/>
</g>
<g fill="#898557" fill-opacity="1.00" stroke="None">
<path d="
M 447.00 297.00 
C 447.35 297.27 448.74 298.70 449.00 299.00
C 447.15 291.30 459.68 287.93 465.00 286.00
C 464.96 285.50 464.98 284.50 465.00 284.00
C 462.30 283.37 455.87 287.39 454.25 289.25 C 452.63 291.11 446.78 294.76 447.00 297.00 Z"/>
</g>
<g fill="#423F12" fill-opacity="1.00" stroke="None">
<path d="
M 449.00 299.00 
C 450.35 300.59 450.47 302.64 452.00 304.00
C 452.28 304.25 453.00 304.00 453.00 304.00
C 450.32 295.73 456.63 286.18 465.00 289.00
C 464.94 288.00 465.07 286.99 465.00 286.00
C 459.68 287.93 447.15 291.30 449.00 299.00 Z"/>
</g>
<g fill="#ACA66E" fill-opacity="1.00" stroke="None">
<path d="
M 410.00 299.00 
C 413.47 299.13 416.57 302.27 419.00 305.00
C 417.55 299.80 424.88 295.46 420.22 290.78 C 415.56 286.10 412.58 297.37 410.00 299.00 Z"/>
</g>
<g fill="#39320A" fill-opacity="0.95" stroke="None">
<path d="
M 330.00 322.00 
C 330.04 324.00 329.97 326.00 330.00 328.00
C 332.35 327.74 336.07 329.03 337.00 326.00
C 338.84 322.59 337.21 315.73 338.98 311.98 C 340.75 308.22 342.39 304.52 344.00 301.00
C 344.30 299.77 344.50 299.14 345.00 298.00
C 345.00 296.67 345.00 295.33 345.00 294.00
C 343.32 292.40 339.09 293.53 338.00 291.00
C 334.50 301.50 331.59 310.89 330.00 322.00 Z"/>
</g>
<g fill="#8EA236" fill-opacity="1.00" stroke="None">
<path d="
M 419.00 305.00 
C 416.57 302.27 413.47 299.13 410.00 299.00
C 408.22 300.23 406.12 300.06 404.00 300.00
C 403.29 303.91 401.91 305.34 398.00 306.00
C 398.51 309.66 396.16 312.69 398.00 316.00
C 392.17 312.18 390.41 319.38 387.00 322.00
C 388.16 326.52 391.49 331.55 395.00 335.00
C 395.25 335.25 395.97 335.65 396.00 336.00
C 398.67 338.09 402.76 337.08 405.00 335.00
C 402.47 339.75 406.15 342.72 407.00 347.00
C 410.85 350.54 413.71 344.98 416.93 345.07 C 420.15 345.16 424.27 347.33 425.00 342.00
C 428.28 345.82 431.65 342.46 435.00 342.00
C 436.97 340.30 440.06 335.12 441.00 333.00
C 442.16 330.37 444.14 325.91 441.00 325.00
C 432.40 327.43 427.91 331.65 418.00 331.00 C 408.08 330.35 422.19 320.95 430.01 323.01 C 437.83 325.07 444.49 316.32 451.00 314.00
C 451.25 313.91 451.65 313.05 452.00 313.00
C 452.62 310.19 451.74 306.88 452.00 304.00
C 450.47 302.64 450.35 300.59 449.00 299.00
C 448.74 298.70 447.35 297.27 447.00 297.00
C 443.04 297.14 437.76 288.10 433.75 291.75 C 429.75 295.41 432.64 302.15 429.00 306.00
C 425.51 305.44 422.93 307.71 420.00 309.00
C 419.65 308.09 419.60 305.68 419.00 305.00 Z"/>
</g>
<g fill="#183300" fill-opacity="1.00" stroke="None">
<path d="
M 468.00 316.00 
C 467.07 307.96 479.70 306.03 476.99 297.01 C 474.28 287.99 470.02 301.74 466.25 306.25 C 462.48 310.75 459.56 318.85 455.23 323.23 C 450.90 327.61 441.80 330.63 442.00 338.00
C 455.54 334.55 463.90 320.91 477.00 316.00
C 479.46 322.54 471.59 326.42 474.08 332.92 C 476.58 339.41 482.63 327.81 483.00 326.00
C 483.15 334.16 492.55 335.50 489.98 328.03 C 487.40 320.55 485.65 319.77 481.00 314.00
C 483.93 313.00 486.99 310.60 486.00 307.00
C 478.57 306.06 473.78 312.51 468.00 316.00 Z"/>
</g>
<g fill="#183200" fill-opacity="1.00" stroke="None">
<path d="
M 487.00 308.00 
C 491.23 310.34 501.89 302.54 498.22 298.78 C 494.56 295.02 488.23 305.97 487.00 308.00 Z"/>
</g>
<g fill="#7A744A" fill-opacity="0.98" stroke="None">
<path d="
M 337.00 326.00 
C 337.98 324.64 338.76 320.48 339.00 319.00
C 339.52 312.22 342.46 307.38 344.00 301.00
C 342.39 304.52 340.75 308.22 338.98 311.98 C 337.21 315.73 338.84 322.59 337.00 326.00 Z"/>
</g>
<g fill="#ACA66F" fill-opacity="1.00" stroke="None">
<path d="
M 374.00 344.00 
C 373.42 336.25 370.57 325.77 371.00 319.00 C 371.42 312.23 366.77 296.02 358.75 301.75 C 350.74 307.49 359.63 320.28 360.00 327.00 C 360.38 333.71 364.95 346.64 374.00 344.00 Z"/>
</g>
<g fill="#B0AF7A" fill-opacity="1.00" stroke="None">
<path d="
M 452.00 313.00 
C 453.00 313.00 454.00 313.00 455.00 313.00
C 454.75 309.98 454.47 306.33 453.00 304.00
C 453.00 304.00 452.28 304.25 452.00 304.00
C 451.74 306.88 452.62 310.19 452.00 313.00 Z"/>
</g>
<g fill="#ACA66F" fill-opacity="0.98" stroke="None">
<path d="
M 525.00 326.00 
C 530.53 327.41 535.11 315.88 528.22 311.78 C 521.34 307.68 521.62 321.53 525.00 326.00 Z"/>
</g>
<g fill="#1D3701" fill-opacity="1.00" stroke="None">
<path d="
M 441.00 325.00 
C 443.33 324.34 464.10 316.16 451.00 314.00
C 444.49 316.32 437.83 325.07 430.01 323.01 C 422.19 320.95 408.08 330.35 418.00 331.00 C 427.91 331.65 432.40 327.43 441.00 325.00 Z"/>
</g>
<g fill="#A8A26B" fill-opacity="0.99" stroke="None">
<path d="
M 337.00 326.00 
C 336.07 329.03 332.35 327.74 330.00 328.00
C 329.97 326.00 330.04 324.00 330.00 322.00
C 327.48 339.61 331.76 358.79 336.00 374.00
C 337.03 376.00 339.43 377.43 341.00 379.00
C 343.61 371.24 347.43 362.85 344.00 355.00 C 340.57 347.15 345.34 334.82 338.00 330.00
C 338.68 326.26 338.70 322.86 339.00 319.00
C 338.76 320.48 337.98 324.64 337.00 326.00 Z"/>
</g>
<g fill="#FEFFF6" fill-opacity="0.02" stroke="None">
<path d="
M 306.00 340.00 
C 306.00 334.67 306.00 329.33 306.00 324.00
C 305.52 328.97 305.51 334.96 306.00 340.00 Z"/>
</g>
<g fill="#AAA46C" fill-opacity="0.99" stroke="None">
<path d="
M 525.00 339.00 
C 530.14 338.27 532.36 328.28 525.03 329.03 C 517.70 329.78 522.64 338.48 524.00 342.00
C 519.17 342.17 519.09 348.88 521.00 352.00
C 511.78 353.68 515.30 362.79 522.00 364.00
C 525.27 356.20 530.42 346.05 525.00 339.00 Z"/>
</g>
<g fill="#A4A066" fill-opacity="1.00" stroke="None">
<path d="
M 435.00 342.00 
C 436.29 341.82 440.48 341.92 442.00 342.00
C 440.31 340.18 440.69 335.34 441.00 333.00
C 440.06 335.12 436.97 340.30 435.00 342.00 Z"/>
</g>
<g fill="#ABA56F" fill-opacity="1.00" stroke="None">
<path d="
M 407.00 348.00 
C 404.65 352.50 404.14 355.06 399.25 358.25 C 394.36 361.43 390.00 353.95 395.25 350.25 C 400.51 346.56 396.45 340.84 396.00 336.00
C 395.97 335.65 395.25 335.25 395.00 335.00
C 395.00 336.33 395.00 337.67 395.00 339.00
C 388.37 334.70 383.85 346.36 383.33 351.33 C 382.81 356.30 383.91 367.55 389.33 370.67 C 394.74 373.79 400.31 359.15 405.00 363.00
C 402.56 367.33 396.25 372.17 398.03 377.97 C 399.80 383.78 405.96 385.10 410.70 379.70 C 415.43 374.29 409.60 368.05 413.22 361.22 C 416.85 354.39 408.15 351.46 407.00 348.00 Z"/>
</g>
<g fill="#3E370E" fill-opacity="1.00" stroke="None">
<path d="
M 396.00 336.00 
C 396.45 340.84 400.51 346.56 395.25 350.25 C 390.00 353.95 394.36 361.43 399.25 358.25 C 404.14 355.06 404.65 352.50 407.00 348.00
C 407.00 348.00 406.98 347.50 407.00 347.00
C 406.15 342.72 402.47 339.75 405.00 335.00
C 402.76 337.08 398.67 338.09 396.00 336.00 Z"/>
</g>
<g fill="#AAA56D" fill-opacity="1.00" stroke="None">
<path d="
M 502.00 347.00 
C 512.10 352.43 499.82 355.20 499.01 360.99 C 498.19 366.78 510.57 369.90 515.00 367.00
C 510.72 356.94 512.49 344.94 508.00 335.00
C 510.92 338.66 508.02 346.23 503.00 343.00
C 502.67 343.83 502.59 346.41 502.00 347.00 Z"/>
</g>
<g fill="#4C451D" fill-opacity="1.00" stroke="None">
<path d="
M 448.00 353.00 
C 442.18 349.00 439.35 358.87 440.00 363.00 C 440.65 367.12 440.80 372.30 439.98 375.98 C 439.15 379.65 435.22 386.15 439.78 389.22 C 444.33 392.30 447.92 383.67 446.00 379.00 C 444.08 374.33 451.36 370.64 447.33 366.67 C 443.30 362.70 453.39 356.71 448.00 353.00 Z"/>
</g>
<g fill="#AFA973" fill-opacity="1.00" stroke="None">
<path d="
M 375.00 355.00 
C 368.44 353.16 361.44 367.60 369.33 371.67 C 377.22 375.73 382.59 357.13 375.00 355.00 Z"/>
</g>
<g fill="#948F63" fill-opacity="1.00" stroke="None">
<path d="
M 472.00 370.00 
C 474.47 364.33 480.13 375.50 479.00 379.00
C 482.41 373.08 473.27 364.44 472.00 370.00 Z"/>
</g>
<g fill="#696339" fill-opacity="1.00" stroke="None">
<path d="
M 472.00 370.00 
C 471.66 371.49 472.85 372.20 473.00 373.00
C 472.70 372.84 477.10 370.11 478.00 373.00
C 477.08 375.72 478.34 378.13 477.00 381.00
C 477.64 380.26 478.41 380.03 479.00 379.00
C 480.13 375.50 474.47 364.33 472.00 370.00 Z"/>
</g>
<g fill="#494219" fill-opacity="1.00" stroke="None">
<path d="
M 473.00 373.00 
C 474.81 382.84 456.47 386.86 459.00 397.00
C 461.24 401.88 467.04 396.97 468.00 394.00
C 467.58 391.74 468.31 389.28 468.00 387.00
C 469.00 387.00 470.00 387.00 471.00 387.00
C 473.66 385.02 474.73 383.60 477.00 381.00
C 478.34 378.13 477.08 375.72 478.00 373.00
C 477.10 370.11 472.70 372.84 473.00 373.00 Z"/>
</g>
<g fill="#ABA570" fill-opacity="0.70" stroke="None">
<path d="
M 343.00 386.00 
C 343.35 386.09 344.67 385.42 346.00 386.00
C 345.84 385.94 346.00 385.00 346.00 385.00
C 345.04 383.04 342.57 380.57 341.00 379.00
C 339.43 377.43 337.03 376.00 336.00 374.00
C 337.51 379.40 339.92 381.64 343.00 386.00 Z"/>
</g>
<g fill="#A9A36D" fill-opacity="0.96" stroke="None">
<path d="
M 410.00 418.00 
C 410.23 418.35 409.97 419.50 410.00 420.00
C 411.41 421.82 414.03 422.68 415.00 425.00
C 417.49 426.02 419.32 425.42 422.00 425.00
C 426.26 424.34 435.96 426.59 440.02 424.02 C 444.09 421.46 457.78 425.46 452.00 428.00
C 451.58 428.18 451.00 428.00 451.00 428.00
C 450.42 428.31 449.54 429.71 449.00 430.00
C 456.71 427.43 464.21 425.65 472.08 421.08 C 479.94 416.51 484.30 411.79 489.77 404.77 C 495.24 397.75 503.52 395.65 510.00 390.00
C 510.00 390.00 509.95 389.50 510.00 389.00
C 510.00 386.67 510.00 384.33 510.00 382.00
C 499.62 379.89 487.28 387.46 484.25 398.25 C 481.22 409.04 461.07 409.30 466.00 422.00
C 463.16 419.27 458.47 415.80 456.00 422.00
C 450.01 414.28 446.92 428.38 440.01 422.99 C 433.11 417.61 419.49 419.22 410.00 418.00 Z"/>
</g>
<g fill="#332C05" fill-opacity="0.87" stroke="None">
<path d="
M 343.00 386.00 
C 347.85 392.86 353.62 401.76 361.25 406.75 C 368.88 411.74 373.45 422.21 382.00 425.00
C 384.26 425.00 385.90 424.57 388.00 424.00
C 387.02 421.44 391.12 417.12 393.00 420.00
C 398.47 421.28 397.68 425.35 401.00 428.00
C 404.78 428.42 407.92 430.16 412.00 430.00
C 412.50 429.98 413.50 430.00 414.00 430.00
C 415.97 428.06 416.27 426.48 414.00 425.00
C 411.49 424.03 410.15 422.56 410.00 420.00
C 409.97 419.50 410.23 418.35 410.00 418.00
C 409.14 416.66 406.10 416.73 405.00 416.00
C 402.96 416.38 402.67 421.34 399.32 419.66 C 395.97 417.98 397.62 415.13 396.00 413.00
C 391.57 412.28 388.19 406.54 383.00 408.00
C 380.73 408.64 377.66 416.11 374.75 411.24 C 371.85 406.38 374.51 404.32 370.00 401.00
C 365.30 399.55 360.68 395.43 357.00 392.00
C 353.62 389.75 349.74 387.39 346.00 386.00
C 344.67 385.42 343.35 386.09 343.00 386.00 Z"/>
</g>
<g fill="#635C32" fill-opacity="0.98" stroke="None">
<path d="
M 346.00 386.00 
C 349.74 387.39 353.62 389.75 357.00 392.00
C 354.18 389.37 350.55 384.18 346.00 385.00
C 346.00 385.00 345.84 385.94 346.00 386.00 Z"/>
</g>
<g fill="#7A7348" fill-opacity="1.00" stroke="None">
<path d="
M 468.00 394.00 
C 468.05 393.85 469.00 394.00 469.00 394.00
C 468.59 390.73 469.09 389.03 471.00 387.00
C 470.00 387.00 469.00 387.00 468.00 387.00
C 468.31 389.28 467.58 391.74 468.00 394.00 Z"/>
</g>
<g fill="#D6CCAF" fill-opacity="0.98" stroke="None">
<path d="
M 449.00 430.00 
C 445.42 431.19 442.48 432.65 439.00 431.00
C 438.50 430.97 437.50 431.00 437.00 431.00
C 435.39 431.00 433.59 431.23 432.00 431.00
C 430.83 431.15 428.79 431.93 427.00 432.00
C 420.59 432.93 417.78 431.93 412.00 430.00
C 407.92 430.16 404.78 428.42 401.00 428.00
C 394.75 427.30 389.80 427.21 384.00 427.00
C 391.51 435.70 410.77 432.91 421.33 435.67 C 431.88 438.44 448.99 433.42 458.97 429.97 C 468.96 426.53 480.27 420.08 487.25 412.25 C 494.23 404.42 506.38 400.02 510.00 390.00
C 503.52 395.65 495.24 397.75 489.77 404.77 C 484.30 411.79 479.94 416.51 472.08 421.08 C 464.21 425.65 456.71 427.43 449.00 430.00 Z"/>
</g>
<g fill="#AEA974" fill-opacity="1.00" stroke="None">
<path d="
M 469.00 394.00 
C 469.00 394.00 468.05 393.85 468.00 394.00
C 467.04 396.97 461.24 401.88 459.00 397.00
C 459.75 398.68 461.43 400.04 463.00 401.00
C 451.84 411.18 477.07 413.64 470.00 401.00
C 472.82 400.33 476.69 399.01 475.92 395.08 C 475.14 391.16 470.19 394.57 469.00 394.00 Z"/>
</g>
<g fill="#969165" fill-opacity="1.00" stroke="None">
<path d="
M 438.00 398.00 
C 439.76 396.52 442.22 396.83 444.00 398.00
C 441.20 401.70 448.58 407.82 442.00 409.00
C 441.50 409.02 440.50 409.00 440.00 409.00
C 449.19 411.25 443.91 403.53 444.92 398.08 C 445.92 392.64 438.27 397.09 438.00 398.00 Z"/>
</g>
<g fill="#676137" fill-opacity="1.00" stroke="None">
<path d="
M 438.00 398.00 
C 438.00 398.00 438.24 398.68 438.00 399.00
C 436.79 400.59 435.11 401.94 435.00 404.00
C 435.18 402.95 439.27 402.11 438.00 400.00
C 442.18 400.16 446.02 405.82 442.00 409.00
C 448.58 407.82 441.20 401.70 444.00 398.00
C 442.22 396.83 439.76 396.52 438.00 398.00 Z"/>
</g>
<g fill="#948E63" fill-opacity="1.00" stroke="None">
<path d="
M 437.00 409.00 
C 435.51 408.47 434.93 405.28 435.00 404.00
C 435.11 401.94 436.79 400.59 438.00 399.00
C 435.24 400.93 430.81 407.68 437.00 409.00 Z"/>
</g>
<g fill="#9E9861" fill-opacity="0.96" stroke="None">
<path d="
M 370.00 401.00 
C 374.51 404.32 371.85 406.38 374.75 411.24 C 377.66 416.11 380.73 408.64 383.00 408.00
C 383.00 399.01 373.89 402.20 370.00 401.00 Z"/>
</g>
<g fill="#3F380F" fill-opacity="1.00" stroke="None">
<path d="
M 435.00 404.00 
C 434.93 405.28 435.51 408.47 437.00 409.00
C 437.89 409.19 439.09 409.00 440.00 409.00
C 440.50 409.00 441.50 409.02 442.00 409.00
C 446.02 405.82 442.18 400.16 438.00 400.00
C 439.27 402.11 435.18 402.95 435.00 404.00 Z"/>
</g>
<g fill="#96905A" fill-opacity="0.87" stroke="None">
<path d="
M 396.00 413.00 
C 397.62 415.13 395.97 417.98 399.32 419.66 C 402.67 421.34 402.96 416.38 405.00 416.00
C 400.43 412.94 401.18 413.85 396.00 413.00 Z"/>
</g>
<g fill="#6C6439" fill-opacity="0.94" stroke="None">
<path d="
M 382.00 425.00 
C 382.00 425.00 381.75 425.75 382.00 426.00
C 382.00 426.00 382.50 425.96 383.00 426.00
C 385.30 426.17 386.88 425.44 389.00 425.00
C 388.30 422.30 389.80 419.17 393.00 420.00
C 391.12 417.12 387.02 421.44 388.00 424.00
C 385.90 424.57 384.26 425.00 382.00 425.00 Z"/>
</g>
<g fill="#9D9662" fill-opacity="0.94" stroke="None">
<path d="
M 383.00 426.00 
C 383.26 426.12 383.78 426.74 384.00 427.00
C 389.80 427.21 394.75 427.30 401.00 428.00
C 397.68 425.35 398.47 421.28 393.00 420.00
C 389.80 419.17 388.30 422.30 389.00 425.00
C 386.88 425.44 385.30 426.17 383.00 426.00 Z"/>
</g>
<g fill="#7F7844" fill-opacity="0.95" stroke="None">
<path d="
M 414.00 425.00 
C 414.44 425.17 415.00 425.00 415.00 425.00
C 414.03 422.68 411.41 421.82 410.00 420.00
C 410.15 422.56 411.49 424.03 414.00 425.00 Z"/>
</g>
<g fill="#655E2F" fill-opacity="0.89" stroke="None">
<path d="
M 422.00 425.00 
C 418.90 426.82 419.80 430.64 415.00 430.00
C 415.26 430.12 415.70 430.78 416.00 431.00
C 419.03 431.88 422.12 430.59 421.00 427.00
C 424.60 425.65 428.13 426.58 430.00 430.00
C 428.98 426.03 435.18 426.33 437.00 426.00
C 438.85 425.67 455.84 423.49 452.00 428.00
C 457.78 425.46 444.09 421.46 440.02 424.02 C 435.96 426.59 426.26 424.34 422.00 425.00 Z"/>
</g>
<g fill="#393107" fill-opacity="0.72" stroke="None">
<path d="
M 414.00 430.00 
C 414.50 430.00 415.00 430.00 415.00 430.00
C 419.80 430.64 418.90 426.82 422.00 425.00
C 419.32 425.42 417.49 426.02 415.00 425.00
C 415.00 425.00 414.44 425.17 414.00 425.00
C 416.27 426.48 415.97 428.06 414.00 430.00 Z"/>
</g>
<g fill="#393009" fill-opacity="0.87" stroke="None">
<path d="
M 437.00 426.00 
C 436.35 426.68 436.18 430.30 437.00 431.00
C 437.50 431.00 438.50 430.97 439.00 431.00
C 444.18 431.36 446.31 427.58 451.00 428.00
C 451.00 428.00 451.58 428.18 452.00 428.00
C 455.84 423.49 438.85 425.67 437.00 426.00 Z"/>
</g>
<g fill="#8D8753" fill-opacity="0.85" stroke="None">
<path d="
M 416.00 431.00 
C 418.47 432.82 423.73 432.13 427.00 432.00
C 428.79 431.93 430.83 431.15 432.00 431.00
C 430.50 430.78 430.97 430.93 430.00 430.00
C 428.13 426.58 424.60 425.65 421.00 427.00
C 422.12 430.59 419.03 431.88 416.00 431.00 Z"/>
</g>
<g fill="#373007" fill-opacity="0.66" stroke="None">
<path d="
M 430.00 430.00 
C 430.97 430.93 430.50 430.78 432.00 431.00
C 433.59 431.23 435.39 431.00 437.00 431.00
C 436.18 430.30 436.35 426.68 437.00 426.00
C 435.18 426.33 428.98 426.03 430.00 430.00 Z"/>
</g>
<g fill="#817958" fill-opacity="0.99" stroke="None">
<path d="
M 439.00 431.00 
C 442.48 432.65 445.42 431.19 449.00 430.00
C 449.54 429.71 450.42 428.31 451.00 428.00
C 446.31 427.58 444.18 431.36 439.00 431.00 Z"/>
</g>
<g fill="#ACA481" fill-opacity="0.99" stroke="None">
<path d="
M 427.00 432.00 
C 423.73 432.13 418.47 432.82 416.00 431.00
C 415.70 430.78 415.26 430.12 415.00 430.00
C 415.00 430.00 414.50 430.00 414.00 430.00
C 413.50 430.00 412.50 429.98 412.00 430.00
C 417.78 431.93 420.59 432.93 427.00 432.00 Z"/>
</g>
</svg>