<svg xmlns="http://www.w3.org/2000/svg" xmlns:v="https://svgstorm.com"
viewBox = "0 0 1154 866"
width="1154"
height="866">
<g fill="None" fill-opacity="0.0" stroke="#000000" stroke-opacity="0.00" stroke-width="0.3"><path d="
M 0.00 866.00 
L 1154.00 866.00
L 1154.00 0.00
L 0.00 0.00
L 0.00 866.00
M 840.00 89.00 
C 843.65 90.30 841.46 97.45 837.32 95.66 C 833.18 93.87 835.95 87.56 840.00 89.00
M 822.00 238.00 
C 822.39 242.43 822.39 247.57 822.00 252.00
C 819.78 277.28 810.68 302.67 794.00 322.00
C 792.74 323.46 791.29 324.71 790.00 326.00
C 772.17 343.83 754.50 355.97 730.00 362.00 C 705.50 368.03 670.10 366.46 648.78 354.22 C 627.45 341.98 607.86 330.86 598.00 308.00
C 594.50 303.57 587.03 304.61 582.00 302.00
C 577.18 295.12 580.66 286.86 578.00 280.00
C 580.89 280.68 579.26 276.17 582.00 276.00
C 585.55 267.40 578.16 251.85 580.00 241.00 C 581.84 230.15 581.47 216.60 585.78 206.78 C 590.08 196.96 592.48 188.77 598.25 180.25 C 604.03 171.74 608.98 165.01 616.23 158.23 C 623.48 151.45 629.15 146.00 638.08 141.08 C 647.00 136.15 655.60 131.22 665.67 128.67 C 675.74 126.12 688.19 122.92 699.07 123.07 C 709.96 123.22 723.95 125.10 734.02 127.98 C 744.10 130.85 752.52 134.75 761.25 139.75 C 769.97 144.76 776.75 149.93 784.25 156.75 C 791.75 163.58 795.91 170.00 801.92 178.08 C 807.92 186.16 811.37 195.37 814.93 205.07 C 818.48 214.78 821.06 227.31 822.00 238.00
M 669.00 445.00 
C 659.66 446.08 668.91 436.18 669.00 445.00 Z"/>
</g>
<g fill="None" fill-opacity="0.0" stroke="#EFEBDF" stroke-opacity="0.35" stroke-width="0.3"><path d="
M 840.00 89.00 
C 835.95 87.56 833.18 93.87 837.32 95.66 C 841.46 97.45 843.65 90.30 840.00 89.00 Z"/>
</g>
<g fill="None" fill-opacity="0.0" stroke="#DBD0AA" stroke-opacity="0.94" stroke-width="0.3"><path d="
M 582.00 276.00 
C 581.64 276.23 584.71 276.14 585.00 275.00
C 586.15 286.76 593.50 296.37 598.00 308.00
C 607.86 330.86 627.45 341.98 648.78 354.22 C 670.10 366.46 705.50 368.03 730.00 362.00 C 754.50 355.97 772.17 343.83 790.00 326.00
C 790.70 324.92 793.21 322.62 794.00 322.00
C 810.68 302.67 819.78 277.28 822.00 252.00
C 821.97 248.31 821.97 241.62 822.00 238.00
C 821.06 227.31 818.48 214.78 814.93 205.07 C 811.37 195.37 807.92 186.16 801.92 178.08 C 795.91 170.00 791.75 163.58 784.25 156.75 C 776.75 149.93 769.97 144.76 761.25 139.75 C 752.52 134.75 744.10 130.85 734.02 127.98 C 723.95 125.10 709.96 123.22 699.07 123.07 C 688.19 122.92 675.74 126.12 665.67 128.67 C 655.60 131.22 647.00 136.15 638.08 141.08 C 629.15 146.00 623.48 151.45 616.23 158.23 C 608.98 165.01 604.03 171.74 598.25 180.25 C 592.48 188.77 590.08 196.96 585.78 206.78 C 581.47 216.60 581.84 230.15 580.00 241.00 C 578.16 251.85 585.55 267.40 582.00 276.00
M 784.00 192.00 
C 787.16 198.39 791.55 203.85 794.00 211.00
C 796.00 214.92 799.78 218.00 802.00 222.00
C 802.86 224.87 798.16 223.00 799.00 226.00
C 810.39 267.41 787.30 310.89 751.77 332.77 C 716.25 354.65 665.84 349.08 634.25 320.75 C 602.66 292.43 592.67 241.98 610.31 205.31 C 627.94 168.63 668.18 139.51 710.00 147.00
C 718.77 144.12 730.94 145.95 741.07 150.93 C 751.21 155.90 757.58 160.74 766.25 167.75 C 774.92 174.77 779.48 182.85 784.00 192.00
M 777.00 329.00 
C 789.11 306.86 807.53 291.96 810.99 264.99 C 814.45 238.02 809.12 206.28 798.00 182.00
C 812.71 192.75 813.14 214.19 816.00 232.00 C 818.86 249.81 816.55 275.43 807.70 290.69 C 798.85 305.96 791.67 319.60 777.00 329.00 Z"/>
</g>
<g fill="None" fill-opacity="0.0" stroke="#E5DDC8" stroke-opacity="1.00" stroke-width="0.3"><path d="
M 710.00 147.00 
C 719.47 148.70 731.10 151.66 740.08 155.92 C 749.05 160.19 756.63 165.09 763.75 172.25 C 770.87 179.40 776.88 187.26 784.00 192.00
C 779.48 182.85 774.92 174.77 766.25 167.75 C 757.58 160.74 751.21 155.90 741.07 150.93 C 730.94 145.95 718.77 144.12 710.00 147.00 Z"/>
</g>
<g fill="None" fill-opacity="0.0" stroke="#9B440A" stroke-opacity="0.98" stroke-width="0.3"><path d="
M 799.00 226.00 
C 797.73 221.38 795.66 215.84 794.00 211.00
C 791.55 203.85 787.16 198.39 784.00 192.00
C 776.88 187.26 770.87 179.40 763.75 172.25 C 756.63 165.09 749.05 160.19 740.08 155.92 C 731.10 151.66 719.47 148.70 710.00 147.00
C 668.18 139.51 627.94 168.63 610.31 205.31 C 592.67 241.98 602.66 292.43 634.25 320.75 C 665.84 349.08 716.25 354.65 751.77 332.77 C 787.30 310.89 810.39 267.41 799.00 226.00
M 735.00 159.00 
C 750.38 162.46 764.86 175.65 775.00 188.00
C 778.81 192.64 780.65 198.85 783.00 203.00
C 783.50 203.89 786.21 205.18 787.00 207.00
C 787.49 208.14 787.45 209.86 788.00 211.00
C 788.23 211.47 788.70 212.37 789.00 213.00
C 795.12 225.86 797.12 244.77 794.00 259.00
C 794.00 260.00 794.03 261.00 794.00 262.00
C 792.27 312.86 730.79 349.63 684.00 340.00
C 685.04 337.91 687.78 336.77 687.00 334.00
C 686.24 336.03 684.29 338.59 682.00 339.00
C 678.92 339.55 675.74 337.76 675.00 335.00
C 672.50 339.46 661.15 332.58 656.77 330.23 C 652.39 327.88 644.76 323.14 640.30 319.70 C 635.84 316.26 629.96 310.11 628.00 305.00
C 630.33 306.07 632.08 305.78 634.00 304.00
C 628.38 294.34 622.22 279.80 637.00 277.00
C 638.65 275.72 633.56 267.20 634.79 263.77 C 636.01 260.34 631.33 254.11 634.71 250.70 C 638.08 247.30 630.52 241.24 633.65 237.30 C 636.78 233.37 632.36 230.26 638.31 224.31 C 644.25 218.35 652.98 208.99 657.30 201.30 C 661.61 193.61 668.15 185.14 675.90 179.90 C 683.65 174.66 684.50 176.81 683.00 168.00
C 680.75 169.96 678.69 166.04 676.00 167.00
C 677.53 164.29 680.39 162.09 684.00 160.00
C 682.40 158.02 680.64 156.84 678.00 156.00
C 695.56 147.54 718.09 150.70 735.00 159.00 Z"/>
</g>
<g fill="None" fill-opacity="0.0" stroke="#912600" stroke-opacity="0.97" stroke-width="0.3"><path d="
M 637.00 277.00 
C 647.89 274.94 660.60 267.94 670.68 263.68 C 680.75 259.42 698.92 269.27 693.22 281.22 C 687.52 293.18 675.32 295.07 666.32 301.32 C 657.32 307.57 639.84 314.05 634.00 304.00
C 632.08 305.78 630.33 306.07 628.00 305.00
C 629.96 310.11 635.84 316.26 640.30 319.70 C 644.76 323.14 652.39 327.88 656.77 330.23 C 661.15 332.58 672.50 339.46 675.00 335.00
C 673.81 330.56 678.01 310.37 686.00 314.00
C 687.52 312.68 689.88 320.80 689.00 323.00 C 688.12 325.20 687.74 331.36 687.00 334.00
C 687.78 336.77 685.04 337.91 684.00 340.00
C 730.79 349.63 792.27 312.86 794.00 262.00
C 793.73 262.25 793.00 262.00 793.00 262.00
C 792.47 266.93 788.21 284.62 782.00 285.00
C 773.11 285.54 773.97 270.53 774.00 265.00
C 770.39 266.11 771.61 270.93 768.00 272.00
C 766.71 276.24 769.85 292.41 762.75 293.75 C 755.65 295.09 749.49 286.78 750.00 280.00 C 750.51 273.22 757.86 268.39 762.00 264.00
C 761.94 263.51 761.85 262.45 762.00 262.00
C 763.31 258.21 768.36 255.87 772.08 255.08 C 775.80 254.29 780.35 249.60 784.00 249.00
C 793.07 243.27 794.00 250.21 794.00 259.00
C 797.12 244.77 795.12 225.86 789.00 213.00
C 788.43 216.73 779.10 218.48 776.75 214.25 C 774.41 210.01 781.68 206.19 783.00 203.00
C 780.65 198.85 778.81 192.64 775.00 188.00
C 775.29 189.02 776.38 189.75 776.00 191.00
C 753.48 191.61 733.17 178.64 720.00 162.00
C 723.30 161.34 728.72 162.57 725.00 158.00
C 728.57 157.49 731.64 158.61 735.00 159.00
C 718.09 150.70 695.56 147.54 678.00 156.00
C 680.64 156.84 682.40 158.02 684.00 160.00
C 680.39 162.09 677.53 164.29 676.00 167.00
C 678.69 166.04 680.75 169.96 683.00 168.00
C 684.50 176.81 683.65 174.66 675.90 179.90 C 668.15 185.14 661.61 193.61 657.30 201.30 C 652.98 208.99 644.25 218.35 638.31 224.31 C 632.36 230.26 636.78 233.37 633.65 237.30 C 630.52 241.24 638.08 247.30 634.71 250.70 C 631.33 254.11 636.01 260.34 634.79 263.77 C 633.56 267.20 638.65 275.72 637.00 277.00
M 719.00 186.00 
C 724.50 184.78 733.81 179.82 739.67 184.33 C 745.53 188.83 739.64 200.43 742.00 206.00
C 739.21 207.01 736.11 207.18 733.00 207.00
C 730.85 213.81 729.21 221.47 723.00 226.00
C 722.93 226.27 723.96 226.78 724.00 227.00
C 726.21 226.40 727.94 226.26 730.00 225.00
C 734.57 221.71 736.31 213.93 742.00 214.00
C 743.96 221.31 738.91 225.90 735.00 231.00
C 733.94 236.24 737.26 244.36 729.78 243.22 C 722.29 242.07 721.04 252.23 717.00 243.00
C 717.56 242.27 720.98 241.93 719.00 241.00
C 719.04 240.44 717.11 238.06 719.00 237.00
C 718.00 237.00 717.00 237.00 716.00 237.00
C 711.03 255.22 684.30 256.15 669.75 246.25 C 655.20 236.34 663.49 208.47 686.00 213.00
C 685.70 211.75 684.17 211.29 684.00 210.00
C 677.88 209.47 677.33 214.95 670.98 213.98 C 664.62 213.01 668.72 209.01 673.25 207.25 C 677.77 205.48 680.85 203.69 686.00 205.00
C 686.47 205.12 687.00 205.00 687.00 205.00
C 691.16 202.34 691.31 200.01 693.00 196.00
C 695.10 191.03 699.42 190.46 702.75 186.75 C 706.09 183.05 712.59 184.53 713.00 180.00
C 719.76 181.72 726.05 172.78 732.00 179.00
C 727.72 181.40 721.46 180.87 719.00 186.00
M 748.00 226.00 
C 750.03 229.14 750.78 234.20 752.00 238.00
C 752.76 240.37 753.62 242.48 754.00 245.00
C 744.52 244.21 735.44 226.35 747.00 223.00
C 746.47 224.28 747.97 224.86 748.00 226.00
M 741.00 270.00 
C 739.69 274.88 734.08 271.35 729.98 270.02 C 725.88 268.70 725.14 261.52 721.00 267.00
C 712.88 261.52 715.93 242.54 721.78 252.22 C 727.62 261.91 731.01 266.02 741.00 270.00
M 712.00 267.00 
C 717.10 268.70 718.58 282.84 712.75 286.75 C 706.92 290.66 696.75 289.55 698.33 281.33 C 699.92 273.11 702.36 263.79 712.00 267.00 Z"/>
</g>
<g fill="None" fill-opacity="0.0" stroke="#590400" stroke-opacity="1.00" stroke-width="0.3"><path d="
M 775.00 188.00 
C 764.86 175.65 750.38 162.46 735.00 159.00
C 731.64 158.61 728.57 157.49 725.00 158.00
C 728.72 162.57 723.30 161.34 720.00 162.00
C 733.17 178.64 753.48 191.61 776.00 191.00
C 776.38 189.75 775.29 189.02 775.00 188.00 Z"/>
</g>
<g fill="None" fill-opacity="0.0" stroke="#A23F00" stroke-opacity="0.98" stroke-width="0.3"><path d="
M 693.00 196.00 
C 696.37 189.82 706.76 185.37 714.00 184.00
C 707.31 189.75 701.74 195.08 694.00 200.00
C 696.48 202.66 692.11 204.98 693.00 208.00
C 706.80 209.57 689.73 216.99 684.00 210.00
C 684.17 211.29 685.70 211.75 686.00 213.00
C 663.49 208.47 655.20 236.34 669.75 246.25 C 684.30 256.15 711.03 255.22 716.00 237.00
C 716.60 234.80 714.73 233.38 719.00 232.00
C 719.15 231.95 719.00 231.00 719.00 231.00
C 715.51 229.27 714.17 226.62 711.00 225.00
C 710.80 224.90 711.00 224.00 711.00 224.00
C 707.97 214.85 689.71 206.31 704.00 197.00
C 704.23 196.65 704.00 196.00 704.00 196.00
C 705.40 188.82 713.48 187.22 719.00 186.00
C 721.46 180.87 727.72 181.40 732.00 179.00
C 726.05 172.78 719.76 181.72 713.00 180.00
C 712.59 184.53 706.09 183.05 702.75 186.75 C 699.42 190.46 695.10 191.03 693.00 196.00
M 720.00 182.00 
C 718.30 183.90 715.80 183.90 714.00 182.00
C 715.03 180.57 719.04 180.31 720.00 182.00 Z"/>
</g>
<g fill="None" fill-opacity="0.0" stroke="#C16C00" stroke-opacity="0.98" stroke-width="0.3"><path d="
M 720.00 182.00 
C 719.04 180.31 715.03 180.57 714.00 182.00
C 715.80 183.90 718.30 183.90 720.00 182.00 Z"/>
</g>
<g fill="None" fill-opacity="0.0" stroke="#E7E1CD" stroke-opacity="1.00" stroke-width="0.3"><path d="
M 777.00 329.00 
C 791.67 319.60 798.85 305.96 807.70 290.69 C 816.55 275.43 818.86 249.81 816.00 232.00 C 813.14 214.19 812.71 192.75 798.00 182.00
C 809.12 206.28 814.45 238.02 810.99 264.99 C 807.53 291.96 789.11 306.86 777.00 329.00 Z"/>
</g>
<g fill="None" fill-opacity="0.0" stroke="#582200" stroke-opacity="0.97" stroke-width="0.3"><path d="
M 719.00 186.00 
C 713.48 187.22 705.40 188.82 704.00 196.00
C 708.08 194.31 711.30 189.44 713.00 187.00
C 715.19 187.53 718.62 185.86 720.00 188.00
C 723.85 188.30 725.31 187.79 728.00 186.00
C 730.99 184.02 740.27 182.54 741.00 191.00
C 741.29 194.31 740.64 198.24 739.00 201.00
C 738.99 201.82 740.30 202.88 741.00 203.00
C 739.16 207.28 730.24 205.45 730.07 212.07 C 729.91 218.69 725.21 220.50 723.00 226.00
C 729.21 221.47 730.85 213.81 733.00 207.00
C 736.11 207.18 739.21 207.01 742.00 206.00
C 739.64 200.43 745.53 188.83 739.67 184.33 C 733.81 179.82 724.50 184.78 719.00 186.00 Z"/>
</g>
<g fill="None" fill-opacity="0.0" stroke="#C06B01" stroke-opacity="0.98" stroke-width="0.3"><path d="
M 693.00 196.00 
C 691.31 200.01 691.16 202.34 687.00 205.00
C 692.81 205.55 687.76 210.97 684.00 209.00
C 683.15 206.72 685.15 206.41 686.00 205.00
C 680.85 203.69 677.77 205.48 673.25 207.25 C 668.72 209.01 664.62 213.01 670.98 213.98 C 677.33 214.95 677.88 209.47 684.00 210.00
C 689.73 216.99 706.80 209.57 693.00 208.00
C 692.11 204.98 696.48 202.66 694.00 200.00
C 701.74 195.08 707.31 189.75 714.00 184.00
C 706.76 185.37 696.37 189.82 693.00 196.00 Z"/>
</g>
<g fill="None" fill-opacity="0.0" stroke="#2C1F00" stroke-opacity="0.99" stroke-width="0.3"><path d="
M 728.00 186.00 
C 731.52 185.28 735.44 186.54 739.00 186.00
C 739.56 187.60 739.50 190.03 741.00 191.00
C 740.27 182.54 730.99 184.02 728.00 186.00 Z"/>
</g>
<g fill="None" fill-opacity="0.0" stroke="#224100" stroke-opacity="1.00" stroke-width="0.3"><path d="
M 720.00 188.00 
C 711.79 190.77 708.54 201.07 704.00 207.00
C 703.74 209.88 706.51 214.57 708.00 217.00
C 709.37 218.23 711.28 217.96 713.00 218.00
C 711.77 221.94 716.02 223.39 719.00 224.00
C 721.29 221.46 723.16 218.53 725.00 216.00
C 728.75 210.25 735.85 206.30 739.00 201.00
C 740.64 198.24 741.29 194.31 741.00 191.00
C 739.50 190.03 739.56 187.60 739.00 186.00
C 735.44 186.54 731.52 185.28 728.00 186.00
C 725.31 187.79 723.85 188.30 720.00 188.00 Z"/>
</g>
<g fill="None" fill-opacity="0.0" stroke="#241F00" stroke-opacity="0.99" stroke-width="0.3"><path d="
M 704.00 196.00 
C 704.00 196.00 704.23 196.65 704.00 197.00
C 701.27 201.09 697.49 205.51 701.00 210.00
C 703.65 210.88 702.13 207.34 704.00 207.00
C 708.54 201.07 711.79 190.77 720.00 188.00
C 718.62 185.86 715.19 187.53 713.00 187.00
C 711.30 189.44 708.08 194.31 704.00 196.00 Z"/>
</g>
<g fill="None" fill-opacity="0.0" stroke="#452400" stroke-opacity="0.98" stroke-width="0.3"><path d="
M 711.00 224.00 
C 711.31 220.52 709.61 219.62 708.00 217.00
C 706.51 214.57 703.74 209.88 704.00 207.00
C 702.13 207.34 703.65 210.88 701.00 210.00
C 697.49 205.51 701.27 201.09 704.00 197.00
C 689.71 206.31 707.97 214.85 711.00 224.00 Z"/>
</g>
<g fill="None" fill-opacity="0.0" stroke="#392000" stroke-opacity="0.98" stroke-width="0.3"><path d="
M 725.00 216.00 
C 724.69 217.25 726.27 222.08 724.08 223.08 C 721.88 224.07 720.04 227.49 723.00 228.00
C 723.35 227.89 723.76 227.06 724.00 227.00
C 723.96 226.78 722.93 226.27 723.00 226.00
C 725.21 220.50 729.91 218.69 730.07 212.07 C 730.24 205.45 739.16 207.28 741.00 203.00
C 740.30 202.88 738.99 201.82 739.00 201.00
C 735.85 206.30 728.75 210.25 725.00 216.00 Z"/>
</g>
<g fill="None" fill-opacity="0.0" stroke="#2B2100" stroke-opacity="0.99" stroke-width="0.3"><path d="
M 789.00 213.00 
C 788.70 212.37 788.23 211.47 788.00 211.00
C 786.91 211.04 783.45 215.06 781.00 213.00
C 779.82 209.51 784.16 205.55 787.00 207.00
C 786.21 205.18 783.50 203.89 783.00 203.00
C 781.68 206.19 774.41 210.01 776.75 214.25 C 779.10 218.48 788.43 216.73 789.00 213.00 Z"/>
</g>
<g fill="None" fill-opacity="0.0" stroke="#D58903" stroke-opacity="0.99" stroke-width="0.3"><path d="
M 687.00 205.00 
C 687.00 205.00 686.47 205.12 686.00 205.00
C 685.15 206.41 683.15 206.72 684.00 209.00
C 687.76 210.97 692.81 205.55 687.00 205.00 Z"/>
</g>
<g fill="None" fill-opacity="0.0" stroke="#223B00" stroke-opacity="1.00" stroke-width="0.3"><path d="
M 788.00 211.00 
C 787.45 209.86 787.49 208.14 787.00 207.00
C 784.16 205.55 779.82 209.51 781.00 213.00
C 783.45 215.06 786.91 211.04 788.00 211.00 Z"/>
</g>
<g fill="None" fill-opacity="0.0" stroke="#C3A47A" stroke-opacity="0.97" stroke-width="0.3"><path d="
M 799.00 226.00 
C 798.16 223.00 802.86 224.87 802.00 222.00
C 799.78 218.00 796.00 214.92 794.00 211.00
C 795.66 215.84 797.73 221.38 799.00 226.00 Z"/>
</g>
<g fill="None" fill-opacity="0.0" stroke="#452100" stroke-opacity="0.98" stroke-width="0.3"><path d="
M 730.00 225.00 
C 731.58 224.03 733.80 222.30 735.00 221.00
C 736.95 218.89 737.92 215.27 741.00 215.00
C 741.41 218.75 740.77 223.27 737.00 225.00
C 736.95 225.49 737.00 226.00 737.00 226.00
C 736.55 228.35 734.91 230.46 733.00 229.00
C 732.90 229.20 732.00 229.00 732.00 229.00
C 731.07 231.90 729.21 232.73 727.00 234.00
C 728.55 233.45 729.82 233.31 732.00 232.00
C 732.94 231.43 733.96 231.50 735.00 231.00
C 738.91 225.90 743.96 221.31 742.00 214.00
C 736.31 213.93 734.57 221.71 730.00 225.00 Z"/>
</g>
<g fill="None" fill-opacity="0.0" stroke="#241D00" stroke-opacity="0.99" stroke-width="0.3"><path d="
M 735.00 221.00 
C 735.07 222.00 737.24 222.78 737.00 225.00
C 740.77 223.27 741.41 218.75 741.00 215.00
C 737.92 215.27 736.95 218.89 735.00 221.00 Z"/>
</g>
<g fill="None" fill-opacity="0.0" stroke="#2C2300" stroke-opacity="0.99" stroke-width="0.3"><path d="
M 708.00 217.00 
C 709.61 219.62 711.31 220.52 711.00 224.00
C 711.00 224.00 710.80 224.90 711.00 225.00
C 712.84 224.42 713.91 224.87 715.00 223.00
C 711.84 228.46 721.34 227.71 719.00 231.00
C 719.00 231.00 719.15 231.95 719.00 232.00
C 720.65 230.12 721.27 228.53 723.00 228.00
C 720.04 227.49 721.88 224.07 724.08 223.08 C 726.27 222.08 724.69 217.25 725.00 216.00
C 723.16 218.53 721.29 221.46 719.00 224.00
C 716.02 223.39 711.77 221.94 713.00 218.00
C 711.28 217.96 709.37 218.23 708.00 217.00 Z"/>
</g>
<g fill="None" fill-opacity="0.0" stroke="#273B00" stroke-opacity="1.00" stroke-width="0.3"><path d="
M 730.00 225.00 
C 727.94 226.26 726.21 226.40 724.00 227.00
C 723.76 227.06 723.35 227.89 723.00 228.00
C 721.27 228.53 720.65 230.12 719.00 232.00
C 718.75 232.28 719.00 233.00 719.00 233.00
C 720.82 238.07 729.10 229.59 732.00 229.00
C 732.00 229.00 732.90 229.20 733.00 229.00
C 734.00 227.06 735.02 226.48 737.00 226.00
C 737.00 226.00 736.95 225.49 737.00 225.00
C 737.24 222.78 735.07 222.00 735.00 221.00
C 733.80 222.30 731.58 224.03 730.00 225.00 Z"/>
</g>
<g fill="None" fill-opacity="0.0" stroke="#582900" stroke-opacity="0.98" stroke-width="0.3"><path d="
M 711.00 225.00 
C 714.17 226.62 715.51 229.27 719.00 231.00
C 721.34 227.71 711.84 228.46 715.00 223.00
C 713.91 224.87 712.84 224.42 711.00 225.00 Z"/>
</g>
<g fill="None" fill-opacity="0.0" stroke="#2D4100" stroke-opacity="1.00" stroke-width="0.3"><path d="
M 752.00 238.00 
C 750.43 234.45 749.62 229.55 748.00 226.00
C 747.97 224.86 746.47 224.28 747.00 223.00
C 735.44 226.35 744.52 244.21 754.00 245.00
C 753.62 242.48 752.76 240.37 752.00 238.00 Z"/>
</g>
<g fill="None" fill-opacity="0.0" stroke="#241E00" stroke-opacity="0.99" stroke-width="0.3"><path d="
M 733.00 229.00 
C 734.91 230.46 736.55 228.35 737.00 226.00
C 735.02 226.48 734.00 227.06 733.00 229.00 Z"/>
</g>
<g fill="None" fill-opacity="0.0" stroke="#392100" stroke-opacity="0.99" stroke-width="0.3"><path d="
M 752.00 238.00 
C 750.78 234.20 750.03 229.14 748.00 226.00
C 749.62 229.55 750.43 234.45 752.00 238.00 Z"/>
</g>
<g fill="None" fill-opacity="0.0" stroke="#2D2300" stroke-opacity="0.99" stroke-width="0.3"><path d="
M 719.00 233.00 
C 715.74 235.02 717.87 236.49 721.00 236.00
C 719.99 237.59 718.47 238.85 719.00 241.00
C 720.98 241.93 717.56 242.27 717.00 243.00
C 721.04 252.23 722.29 242.07 729.78 243.22 C 737.26 244.36 733.94 236.24 735.00 231.00
C 733.96 231.50 732.94 231.43 732.00 232.00
C 738.37 233.63 727.13 238.78 731.00 242.00
C 722.13 245.06 716.15 235.87 727.00 234.00
C 729.21 232.73 731.07 231.90 732.00 229.00
C 729.10 229.59 720.82 238.07 719.00 233.00 Z"/>
</g>
<g fill="None" fill-opacity="0.0" stroke="#522A00" stroke-opacity="0.98" stroke-width="0.3"><path d="
M 716.00 237.00 
C 717.00 237.00 718.00 237.00 719.00 237.00
C 717.11 238.06 719.04 240.44 719.00 241.00
C 718.47 238.85 719.99 237.59 721.00 236.00
C 717.87 236.49 715.74 235.02 719.00 233.00
C 719.00 233.00 718.75 232.28 719.00 232.00
C 714.73 233.38 716.60 234.80 716.00 237.00 Z"/>
</g>
<g fill="None" fill-opacity="0.0" stroke="#283800" stroke-opacity="1.00" stroke-width="0.3"><path d="
M 727.00 234.00 
C 716.15 235.87 722.13 245.06 731.00 242.00
C 727.13 238.78 738.37 233.63 732.00 232.00
C 729.82 233.31 728.55 233.45 727.00 234.00 Z"/>
</g>
<g fill="None" fill-opacity="0.0" stroke="#ECE3AE" stroke-opacity="0.05" stroke-width="0.3"><path d="
M 822.00 252.00 
C 822.39 247.57 822.39 242.43 822.00 238.00
C 821.97 241.62 821.97 248.31 822.00 252.00 Z"/>
</g>
<g fill="None" fill-opacity="0.0" stroke="#4E2200" stroke-opacity="1.00" stroke-width="0.3"><path d="
M 784.00 249.00 
C 784.49 248.92 785.57 249.17 786.00 249.00
C 792.25 243.05 793.00 252.22 793.00 257.00
C 793.00 258.63 793.17 260.38 793.00 262.00
C 793.00 262.00 793.73 262.25 794.00 262.00
C 794.03 261.00 794.00 260.00 794.00 259.00
C 794.00 250.21 793.07 243.27 784.00 249.00 Z"/>
</g>
<g fill="None" fill-opacity="0.0" stroke="#2D2100" stroke-opacity="1.00" stroke-width="0.3"><path d="
M 786.00 249.00 
C 792.35 246.42 792.51 252.37 793.00 257.00
C 793.00 252.22 792.25 243.05 786.00 249.00 Z"/>
</g>
<g fill="None" fill-opacity="0.0" stroke="#C06C01" stroke-opacity="0.99" stroke-width="0.3"><path d="
M 741.00 270.00 
C 731.01 266.02 727.62 261.91 721.78 252.22 C 715.93 242.54 712.88 261.52 721.00 267.00
C 725.14 261.52 725.88 268.70 729.98 270.02 C 734.08 271.35 739.69 274.88 741.00 270.00 Z"/>
</g>
<g fill="None" fill-opacity="0.0" stroke="#192000" stroke-opacity="1.00" stroke-width="0.3"><path d="
M 786.00 249.00 
C 785.57 249.17 784.49 248.92 784.00 249.00
C 780.35 249.60 775.80 254.29 772.08 255.08 C 768.36 255.87 763.31 258.21 762.00 262.00
C 762.56 262.82 763.45 263.60 763.00 265.00
C 765.23 264.29 769.93 262.57 769.00 267.00
C 770.30 264.74 774.36 262.98 776.00 261.00
C 775.72 262.28 776.76 264.50 775.00 265.00
C 775.08 268.02 774.46 273.38 778.00 274.00
C 778.68 277.05 774.72 277.54 776.00 281.00
C 778.08 282.17 781.17 282.19 782.00 285.00
C 788.21 284.62 792.47 266.93 793.00 262.00
C 793.17 260.38 793.00 258.63 793.00 257.00
C 792.51 252.37 792.35 246.42 786.00 249.00
M 786.00 262.00 
C 782.84 262.57 782.71 266.51 780.00 268.00
C 779.71 264.09 780.59 260.48 782.00 257.00
C 784.10 257.07 785.70 260.01 786.00 262.00 Z"/>
</g>
<g fill="None" fill-opacity="0.0" stroke="#2B2000" stroke-opacity="1.00" stroke-width="0.3"><path d="
M 786.00 262.00 
C 785.70 260.01 784.10 257.07 782.00 257.00
C 780.59 260.48 779.71 264.09 780.00 268.00
C 782.71 266.51 782.84 262.57 786.00 262.00 Z"/>
</g>
<g fill="None" fill-opacity="0.0" stroke="#B73100" stroke-opacity="0.99" stroke-width="0.3"><path d="
M 637.00 277.00 
C 622.22 279.80 628.38 294.34 634.00 304.00
C 639.84 314.05 657.32 307.57 666.32 301.32 C 675.32 295.07 687.52 293.18 693.22 281.22 C 698.92 269.27 680.75 259.42 670.68 263.68 C 660.60 267.94 647.89 274.94 637.00 277.00 Z"/>
</g>
<g fill="None" fill-opacity="0.0" stroke="#372300" stroke-opacity="1.00" stroke-width="0.3"><path d="
M 769.00 267.00 
C 768.48 267.91 768.15 269.89 768.00 271.00
C 769.02 269.73 770.85 268.12 771.25 266.25 C 771.66 264.39 776.74 262.92 775.00 265.00
C 776.76 264.50 775.72 262.28 776.00 261.00
C 774.36 262.98 770.30 264.74 769.00 267.00 Z"/>
</g>
<g fill="None" fill-opacity="0.0" stroke="#314D00" stroke-opacity="1.00" stroke-width="0.3"><path d="
M 762.00 264.00 
C 762.70 269.92 761.77 274.02 758.23 279.23 C 754.69 284.44 755.27 291.31 760.30 286.30 C 765.33 281.29 761.73 274.59 768.00 272.00
C 768.18 271.93 768.00 271.00 768.00 271.00
C 768.15 269.89 768.48 267.91 769.00 267.00
C 769.93 262.57 765.23 264.29 763.00 265.00
C 763.45 263.60 762.56 262.82 762.00 262.00
C 761.85 262.45 761.94 263.51 762.00 264.00 Z"/>
</g>
<g fill="None" fill-opacity="0.0" stroke="#572200" stroke-opacity="1.00" stroke-width="0.3"><path d="
M 768.00 271.00 
C 768.00 271.00 768.18 271.93 768.00 272.00
C 771.61 270.93 770.39 266.11 774.00 265.00
C 773.97 270.53 773.11 285.54 782.00 285.00
C 781.17 282.19 778.08 282.17 776.00 281.00
C 774.72 277.54 778.68 277.05 778.00 274.00
C 774.46 273.38 775.08 268.02 775.00 265.00
C 776.74 262.92 771.66 264.39 771.25 266.25 C 770.85 268.12 769.02 269.73 768.00 271.00 Z"/>
</g>
<g fill="None" fill-opacity="0.0" stroke="#7D6401" stroke-opacity="1.00" stroke-width="0.3"><path d="
M 768.00 272.00 
C 761.73 274.59 765.33 281.29 760.30 286.30 C 755.27 291.31 754.69 284.44 758.23 279.23 C 761.77 274.02 762.70 269.92 762.00 264.00
C 757.86 268.39 750.51 273.22 750.00 280.00 C 749.49 286.78 755.65 295.09 762.75 293.75 C 769.85 292.41 766.71 276.24 768.00 272.00 Z"/>
</g>
<g fill="None" fill-opacity="0.0" stroke="#C26E01" stroke-opacity="1.00" stroke-width="0.3"><path d="
M 712.00 267.00 
C 702.36 263.79 699.92 273.11 698.33 281.33 C 696.75 289.55 706.92 290.66 712.75 286.75 C 718.58 282.84 717.10 268.70 712.00 267.00 Z"/>
</g>
<g fill="None" fill-opacity="0.0" stroke="#DED4AA" stroke-opacity="0.17" stroke-width="0.3"><path d="
M 582.00 276.00 
C 579.26 276.17 580.89 280.68 578.00 280.00
C 580.66 286.86 577.18 295.12 582.00 302.00
C 587.03 304.61 594.50 303.57 598.00 308.00
C 593.50 296.37 586.15 286.76 585.00 275.00
C 584.71 276.14 581.64 276.23 582.00 276.00 Z"/>
</g>
<g fill="None" fill-opacity="0.0" stroke="#324B00" stroke-opacity="1.00" stroke-width="0.3"><path d="
M 675.00 335.00 
C 675.74 337.76 678.92 339.55 682.00 339.00
C 679.62 334.78 679.50 328.81 681.00 324.00
C 682.00 320.80 687.22 318.95 687.00 316.00
C 686.90 315.82 686.05 314.02 686.00 314.00
C 678.01 310.37 673.81 330.56 675.00 335.00 Z"/>
</g>
<g fill="None" fill-opacity="0.0" stroke="#815500" stroke-opacity="1.00" stroke-width="0.3"><path d="
M 687.00 316.00 
C 689.45 320.32 682.53 320.28 681.00 324.00
C 679.50 328.81 679.62 334.78 682.00 339.00
C 684.29 338.59 686.24 336.03 687.00 334.00
C 687.74 331.36 688.12 325.20 689.00 323.00 C 689.88 320.80 687.52 312.68 686.00 314.00
C 686.05 314.02 686.90 315.82 687.00 316.00 Z"/>
</g>
<g fill="None" fill-opacity="0.0" stroke="#5C5400" stroke-opacity="1.00" stroke-width="0.3"><path d="
M 681.00 324.00 
C 682.53 320.28 689.45 320.32 687.00 316.00
C 687.22 318.95 682.00 320.80 681.00 324.00 Z"/>
</g>
<g fill="None" fill-opacity="0.0" stroke="#DDD6B1" stroke-opacity="0.35" stroke-width="0.3"><path d="
M 790.00 326.00 
C 791.29 324.71 792.74 323.46 794.00 322.00
C 793.21 322.62 790.70 324.92 790.00 326.00 Z"/>
</g>
<g fill="None" fill-opacity="0.0" stroke="#7D7703" stroke-opacity="0.09" stroke-width="0.3"><path d="
M 669.00 445.00 
C 668.91 436.18 659.66 446.08 669.00 445.00 Z"/>
</g>
<g fill="#000000" fill-opacity="0.00" stroke="None">
<path d="
M 0.00 866.00 
L 1154.00 866.00
L 1154.00 0.00
L 0.00 0.00
L 0.00 866.00
M 840.00 89.00 
C 843.65 90.30 841.46 97.45 837.32 95.66 C 833.18 93.87 835.95 87.56 840.00 89.00
M 822.00 238.00 
C 822.39 242.43 822.39 247.57 822.00 252.00
C 819.78 277.28 810.68 302.67 794.00 322.00
C 792.74 323.46 791.29 324.71 790.00 326.00
C 772.17 343.83 754.50 355.97 730.00 362.00 C 705.50 368.03 670.10 366.46 648.78 354.22 C 627.45 341.98 607.86 330.86 598.00 308.00
C 594.50 303.57 587.03 304.61 582.00 302.00
C 577.18 295.12 580.66 286.86 578.00 280.00
C 580.89 280.68 579.26 276.17 582.00 276.00
C 585.55 267.40 578.16 251.85 580.00 241.00 C 581.84 230.15 581.47 216.60 585.78 206.78 C 590.08 196.96 592.48 188.77 598.25 180.25 C 604.03 171.74 608.98 165.01 616.23 158.23 C 623.48 151.45 629.15 146.00 638.08 141.08 C 647.00 136.15 655.60 131.22 665.67 128.67 C 675.74 126.12 688.19 122.92 699.07 123.07 C 709.96 123.22 723.95 125.10 734.02 127.98 C 744.10 130.85 752.52 134.75 761.25 139.75 C 769.97 144.76 776.75 149.93 784.25 156.75 C 791.75 163.58 795.91 170.00 801.92 178.08 C 807.92 186.16 811.37 195.37 814.93 205.07 C 818.48 214.78 821.06 227.31 822.00 238.00
M 669.00 445.00 
C 659.66 446.08 668.91 436.18 669.00 445.00 Z"/>
</g>
<g fill="#EFEBDF" fill-opacity="0.35" stroke="None">
<path d="
M 840.00 89.00 
C 835.95 87.56 833.18 93.87 837.32 95.66 C 841.46 97.45 843.65 90.30 840.00 89.00 Z"/>
</g>
<g fill="#DBD0AA" fill-opacity="0.94" stroke="None">
<path d="
M 582.00 276.00 
C 581.64 276.23 584.71 276.14 585.00 275.00
C 586.15 286.76 593.50 296.37 598.00 308.00
C 607.86 330.86 627.45 341.98 648.78 354.22 C 670.10 366.46 705.50 368.03 730.00 362.00 C 754.50 355.97 772.17 343.83 790.00 326.00
C 790.70 324.92 793.21 322.62 794.00 322.00
C 810.68 302.67 819.78 277.28 822.00 252.00
C 821.97 248.31 821.97 241.62 822.00 238.00
C 821.06 227.31 818.48 214.78 814.93 205.07 C 811.37 195.37 807.92 186.16 801.92 178.08 C 795.91 170.00 791.75 163.58 784.25 156.75 C 776.75 149.93 769.97 144.76 761.25 139.75 C 752.52 134.75 744.10 130.85 734.02 127.98 C 723.95 125.10 709.96 123.22 699.07 123.07 C 688.19 122.92 675.74 126.12 665.67 128.67 C 655.60 131.22 647.00 136.15 638.08 141.08 C 629.15 146.00 623.48 151.45 616.23 158.23 C 608.98 165.01 604.03 171.74 598.25 180.25 C 592.48 188.77 590.08 196.96 585.78 206.78 C 581.47 216.60 581.84 230.15 580.00 241.00 C 578.16 251.85 585.55 267.40 582.00 276.00
M 784.00 192.00 
C 787.16 198.39 791.55 203.85 794.00 211.00
C 796.00 214.92 799.78 218.00 802.00 222.00
C 802.86 224.87 798.16 223.00 799.00 226.00
C 810.39 267.41 787.30 310.89 751.77 332.77 C 716.25 354.65 665.84 349.08 634.25 320.75 C 602.66 292.43 592.67 241.98 610.31 205.31 C 627.94 168.63 668.18 139.51 710.00 147.00
C 718.77 144.12 730.94 145.95 741.07 150.93 C 751.21 155.90 757.58 160.74 766.25 167.75 C 774.92 174.77 779.48 182.85 784.00 192.00
M 777.00 329.00 
C 789.11 306.86 807.53 291.96 810.99 264.99 C 814.45 238.02 809.12 206.28 798.00 182.00
C 812.71 192.75 813.14 214.19 816.00 232.00 C 818.86 249.81 816.55 275.43 807.70 290.69 C 798.85 305.96 791.67 319.60 777.00 329.00 Z"/>
</g>
<g fill="#E5DDC8" fill-opacity="1.00" stroke="None">
<path d="
M 710.00 147.00 
C 719.47 148.70 731.10 151.66 740.08 155.92 C 749.05 160.19 756.63 165.09 763.75 172.25 C 770.87 179.40 776.88 187.26 784.00 192.00
C 779.48 182.85 774.92 174.77 766.25 167.75 C 757.58 160.74 751.21 155.90 741.07 150.93 C 730.94 145.95 718.77 144.12 710.00 147.00 Z"/>
</g>
<g fill="#9B440A" fill-opacity="0.98" stroke="None">
<path d="
M 799.00 226.00 
C 797.73 221.38 795.66 215.84 794.00 211.00
C 791.55 203.85 787.16 198.39 784.00 192.00
C 776.88 187.26 770.87 179.40 763.75 172.25 C 756.63 165.09 749.05 160.19 740.08 155.92 C 731.10 151.66 719.47 148.70 710.00 147.00
C 668.18 139.51 627.94 168.63 610.31 205.31 C 592.67 241.98 602.66 292.43 634.25 320.75 C 665.84 349.08 716.25 354.65 751.77 332.77 C 787.30 310.89 810.39 267.41 799.00 226.00
M 735.00 159.00 
C 750.38 162.46 764.86 175.65 775.00 188.00
C 778.81 192.64 780.65 198.85 783.00 203.00
C 783.50 203.89 786.21 205.18 787.00 207.00
C 787.49 208.14 787.45 209.86 788.00 211.00
C 788.23 211.47 788.70 212.37 789.00 213.00
C 795.12 225.86 797.12 244.77 794.00 259.00
C 794.00 260.00 794.03 261.00 794.00 262.00
C 792.27 312.86 730.79 349.63 684.00 340.00
C 685.04 337.91 687.78 336.77 687.00 334.00
C 686.24 336.03 684.29 338.59 682.00 339.00
C 678.92 339.55 675.74 337.76 675.00 335.00
C 672.50 339.46 661.15 332.58 656.77 330.23 C 652.39 327.88 644.76 323.14 640.30 319.70 C 635.84 316.26 629.96 310.11 628.00 305.00
C 630.33 306.07 632.08 305.78 634.00 304.00
C 628.38 294.34 622.22 279.80 637.00 277.00
C 638.65 275.72 633.56 267.20 634.79 263.77 C 636.01 260.34 631.33 254.11 634.71 250.70 C 638.08 247.30 630.52 241.24 633.65 237.30 C 636.78 233.37 632.36 230.26 638.31 224.31 C 644.25 218.35 652.98 208.99 657.30 201.30 C 661.61 193.61 668.15 185.14 675.90 179.90 C 683.65 174.66 684.50 176.81 683.00 168.00
C 680.75 169.96 678.69 166.04 676.00 167.00
C 677.53 164.29 680.39 162.09 684.00 160.00
C 682.40 158.02 680.64 156.84 678.00 156.00
C 695.56 147.54 718.09 150.70 735.00 159.00 Z"/>
</g>
<g fill="#912600" fill-opacity="0.97" stroke="None">
<path d="
M 637.00 277.00 
C 647.89 274.94 660.60 267.94 670.68 263.68 C 680.75 259.42 698.92 269.27 693.22 281.22 C 687.52 293.18 675.32 295.07 666.32 301.32 C 657.32 307.57 639.84 314.05 634.00 304.00
C 632.08 305.78 630.33 306.07 628.00 305.00
C 629.96 310.11 635.84 316.26 640.30 319.70 C 644.76 323.14 652.39 327.88 656.77 330.23 C 661.15 332.58 672.50 339.46 675.00 335.00
C 673.81 330.56 678.01 310.37 686.00 314.00
C 687.52 312.68 689.88 320.80 689.00 323.00 C 688.12 325.20 687.74 331.36 687.00 334.00
C 687.78 336.77 685.04 337.91 684.00 340.00
C 730.79 349.63 792.27 312.86 794.00 262.00
C 793.73 262.25 793.00 262.00 793.00 262.00
C 792.47 266.93 788.21 284.62 782.00 285.00
C 773.11 285.54 773.97 270.53 774.00 265.00
C 770.39 266.11 771.61 270.93 768.00 272.00
C 766.71 276.24 769.85 292.41 762.75 293.75 C 755.65 295.09 749.49 286.78 750.00 280.00 C 750.51 273.22 757.86 268.39 762.00 264.00
C 761.94 263.51 761.85 262.45 762.00 262.00
C 763.31 258.21 768.36 255.87 772.08 255.08 C 775.80 254.29 780.35 249.60 784.00 249.00
C 793.07 243.27 794.00 250.21 794.00 259.00
C 797.12 244.77 795.12 225.86 789.00 213.00
C 788.43 216.73 779.10 218.48 776.75 214.25 C 774.41 210.01 781.68 206.19 783.00 203.00
C 780.65 198.85 778.81 192.64 775.00 188.00
C 775.29 189.02 776.38 189.75 776.00 191.00
C 753.48 191.61 733.17 178.64 720.00 162.00
C 723.30 161.34 728.72 162.57 725.00 158.00
C 728.57 157.49 731.64 158.61 735.00 159.00
C 718.09 150.70 695.56 147.54 678.00 156.00
C 680.64 156.84 682.40 158.02 684.00 160.00
C 680.39 162.09 677.53 164.29 676.00 167.00
C 678.69 166.04 680.75 169.96 683.00 168.00
C 684.50 176.81 683.65 174.66 675.90 179.90 C 668.15 185.14 661.61 193.61 657.30 201.30 C 652.98 208.99 644.25 218.35 638.31 224.31 C 632.36 230.26 636.78 233.37 633.65 237.30 C 630.52 241.24 638.08 247.30 634.71 250.70 C 631.33 254.11 636.01 260.34 634.79 263.77 C 633.56 267.20 638.65 275.72 637.00 277.00
M 719.00 186.00 
C 724.50 184.78 733.81 179.82 739.67 184.33 C 745.53 188.83 739.64 200.43 742.00 206.00
C 739.21 207.01 736.11 207.18 733.00 207.00
C 730.85 213.81 729.21 221.47 723.00 226.00
C 722.93 226.27 723.96 226.78 724.00 227.00
C 726.21 226.40 727.94 226.26 730.00 225.00
C 734.57 221.71 736.31 213.93 742.00 214.00
C 743.96 221.31 738.91 225.90 735.00 231.00
C 733.94 236.24 737.26 244.36 729.78 243.22 C 722.29 242.07 721.04 252.23 717.00 243.00
C 717.56 242.27 720.98 241.93 719.00 241.00
C 719.04 240.44 717.11 238.06 719.00 237.00
C 718.00 237.00 717.00 237.00 716.00 237.00
C 711.03 255.22 684.30 256.15 669.75 246.25 C 655.20 236.34 663.49 208.47 686.00 213.00
C 685.70 211.75 684.17 211.29 684.00 210.00
C 677.88 209.47 677.33 214.95 670.98 213.98 C 664.62 213.01 668.72 209.01 673.25 207.25 C 677.77 205.48 680.85 203.69 686.00 205.00
C 686.47 205.12 687.00 205.00 687.00 205.00
C 691.16 202.34 691.31 200.01 693.00 196.00
C 695.10 191.03 699.42 190.46 702.75 186.75 C 706.09 183.05 712.59 184.53 713.00 180.00
C 719.76 181.72 726.05 172.78 732.00 179.00
C 727.72 181.40 721.46 180.87 719.00 186.00
M 748.00 226.00 
C 750.03 229.14 750.78 234.20 752.00 238.00
C 752.76 240.37 753.62 242.48 754.00 245.00
C 744.52 244.21 735.44 226.35 747.00 223.00
C 746.47 224.28 747.97 224.86 748.00 226.00
M 741.00 270.00 
C 739.69 274.88 734.08 271.35 729.98 270.02 C 725.88 268.70 725.14 261.52 721.00 267.00
C 712.88 261.52 715.93 242.54 721.78 252.22 C 727.62 261.91 731.01 266.02 741.00 270.00
M 712.00 267.00 
C 717.10 268.70 718.58 282.84 712.75 286.75 C 706.92 290.66 696.75 289.55 698.33 281.33 C 699.92 273.11 702.36 263.79 712.00 267.00 Z"/>
</g>
<g fill="#590400" fill-opacity="1.00" stroke="None">
<path d="
M 775.00 188.00 
C 764.86 175.65 750.38 162.46 735.00 159.00
C 731.64 158.61 728.57 157.49 725.00 158.00
C 728.72 162.57 723.30 161.34 720.00 162.00
C 733.17 178.64 753.48 191.61 776.00 191.00
C 776.38 189.75 775.29 189.02 775.00 188.00 Z"/>
</g>
<g fill="#A23F00" fill-opacity="0.98" stroke="None">
<path d="
M 693.00 196.00 
C 696.37 189.82 706.76 185.37 714.00 184.00
C 707.31 189.75 701.74 195.08 694.00 200.00
C 696.48 202.66 692.11 204.98 693.00 208.00
C 706.80 209.57 689.73 216.99 684.00 210.00
C 684.17 211.29 685.70 211.75 686.00 213.00
C 663.49 208.47 655.20 236.34 669.75 246.25 C 684.30 256.15 711.03 255.22 716.00 237.00
C 716.60 234.80 714.73 233.38 719.00 232.00
C 719.15 231.95 719.00 231.00 719.00 231.00
C 715.51 229.27 714.17 226.62 711.00 225.00
C 710.80 224.90 711.00 224.00 711.00 224.00
C 707.97 214.85 689.71 206.31 704.00 197.00
C 704.23 196.65 704.00 196.00 704.00 196.00
C 705.40 188.82 713.48 187.22 719.00 186.00
C 721.46 180.87 727.72 181.40 732.00 179.00
C 726.05 172.78 719.76 181.72 713.00 180.00
C 712.59 184.53 706.09 183.05 702.75 186.75 C 699.42 190.46 695.10 191.03 693.00 196.00
M 720.00 182.00 
C 718.30 183.90 715.80 183.90 714.00 182.00
C 715.03 180.57 719.04 180.31 720.00 182.00 Z"/>
</g>
<g fill="#C16C00" fill-opacity="0.98" stroke="None">
<path d="
M 720.00 182.00 
C 719.04 180.31 715.03 180.57 714.00 182.00
C 715.80 183.90 718.30 183.90 720.00 182.00 Z"/>
</g>
<g fill="#E7E1CD" fill-opacity="1.00" stroke="None">
<path d="
M 777.00 329.00 
C 791.67 319.60 798.85 305.96 807.70 290.69 C 816.55 275.43 818.86 249.81 816.00 232.00 C 813.14 214.19 812.71 192.75 798.00 182.00
C 809.12 206.28 814.45 238.02 810.99 264.99 C 807.53 291.96 789.11 306.86 777.00 329.00 Z"/>
</g>
<g fill="#582200" fill-opacity="0.97" stroke="None">
<path d="
M 719.00 186.00 
C 713.48 187.22 705.40 188.82 704.00 196.00
C 708.08 194.31 711.30 189.44 713.00 187.00
C 715.19 187.53 718.62 185.86 720.00 188.00
C 723.85 188.30 725.31 187.79 728.00 186.00
C 730.99 184.02 740.27 182.54 741.00 191.00
C 741.29 194.31 740.64 198.24 739.00 201.00
C 738.99 201.82 740.30 202.88 741.00 203.00
C 739.16 207.28 730.24 205.45 730.07 212.07 C 729.91 218.69 725.21 220.50 723.00 226.00
C 729.21 221.47 730.85 213.81 733.00 207.00
C 736.11 207.18 739.21 207.01 742.00 206.00
C 739.64 200.43 745.53 188.83 739.67 184.33 C 733.81 179.82 724.50 184.78 719.00 186.00 Z"/>
</g>
<g fill="#C06B01" fill-opacity="0.98" stroke="None">
<path d="
M 693.00 196.00 
C 691.31 200.01 691.16 202.34 687.00 205.00
C 692.81 205.55 687.76 210.97 684.00 209.00
C 683.15 206.72 685.15 206.41 686.00 205.00
C 680.85 203.69 677.77 205.48 673.25 207.25 C 668.72 209.01 664.62 213.01 670.98 213.98 C 677.33 214.95 677.88 209.47 684.00 210.00
C 689.73 216.99 706.80 209.57 693.00 208.00
C 692.11 204.98 696.48 202.66 694.00 200.00
C 701.74 195.08 707.31 189.75 714.00 184.00
C 706.76 185.37 696.37 189.82 693.00 196.00 Z"/>
</g>
<g fill="#2C1F00" fill-opacity="0.99" stroke="None">
<path d="
M 728.00 186.00 
C 731.52 185.28 735.44 186.54 739.00 186.00
C 739.56 187.60 739.50 190.03 741.00 191.00
C 740.27 182.54 730.99 184.02 728.00 186.00 Z"/>
</g>
<g fill="#224100" fill-opacity="1.00" stroke="None">
<path d="
M 720.00 188.00 
C 711.79 190.77 708.54 201.07 704.00 207.00
C 703.74 209.88 706.51 214.57 708.00 217.00
C 709.37 218.23 711.28 217.96 713.00 218.00
C 711.77 221.94 716.02 223.39 719.00 224.00
C 721.29 221.46 723.16 218.53 725.00 216.00
C 728.75 210.25 735.85 206.30 739.00 201.00
C 740.64 198.24 741.29 194.31 741.00 191.00
C 739.50 190.03 739.56 187.60 739.00 186.00
C 735.44 186.54 731.52 185.28 728.00 186.00
C 725.31 187.79 723.85 188.30 720.00 188.00 Z"/>
</g>
<g fill="#241F00" fill-opacity="0.99" stroke="None">
<path d="
M 704.00 196.00 
C 704.00 196.00 704.23 196.65 704.00 197.00
C 701.27 201.09 697.49 205.51 701.00 210.00
C 703.65 210.88 702.13 207.34 704.00 207.00
C 708.54 201.07 711.79 190.77 720.00 188.00
C 718.62 185.86 715.19 187.53 713.00 187.00
C 711.30 189.44 708.08 194.31 704.00 196.00 Z"/>
</g>
<g fill="#452400" fill-opacity="0.98" stroke="None">
<path d="
M 711.00 224.00 
C 711.31 220.52 709.61 219.62 708.00 217.00
C 706.51 214.57 703.74 209.88 704.00 207.00
C 702.13 207.34 703.65 210.88 701.00 210.00
C 697.49 205.51 701.27 201.09 704.00 197.00
C 689.71 206.31 707.97 214.85 711.00 224.00 Z"/>
</g>
<g fill="#392000" fill-opacity="0.98" stroke="None">
<path d="
M 725.00 216.00 
C 724.69 217.25 726.27 222.08 724.08 223.08 C 721.88 224.07 720.04 227.49 723.00 228.00
C 723.35 227.89 723.76 227.06 724.00 227.00
C 723.96 226.78 722.93 226.27 723.00 226.00
C 725.21 220.50 729.91 218.69 730.07 212.07 C 730.24 205.45 739.16 207.28 741.00 203.00
C 740.30 202.88 738.99 201.82 739.00 201.00
C 735.85 206.30 728.75 210.25 725.00 216.00 Z"/>
</g>
<g fill="#2B2100" fill-opacity="0.99" stroke="None">
<path d="
M 789.00 213.00 
C 788.70 212.37 788.23 211.47 788.00 211.00
C 786.91 211.04 783.45 215.06 781.00 213.00
C 779.82 209.51 784.16 205.55 787.00 207.00
C 786.21 205.18 783.50 203.89 783.00 203.00
C 781.68 206.19 774.41 210.01 776.75 214.25 C 779.10 218.48 788.43 216.73 789.00 213.00 Z"/>
</g>
<g fill="#D58903" fill-opacity="0.99" stroke="None">
<path d="
M 687.00 205.00 
C 687.00 205.00 686.47 205.12 686.00 205.00
C 685.15 206.41 683.15 206.72 684.00 209.00
C 687.76 210.97 692.81 205.55 687.00 205.00 Z"/>
</g>
<g fill="#223B00" fill-opacity="1.00" stroke="None">
<path d="
M 788.00 211.00 
C 787.45 209.86 787.49 208.14 787.00 207.00
C 784.16 205.55 779.82 209.51 781.00 213.00
C 783.45 215.06 786.91 211.04 788.00 211.00 Z"/>
</g>
<g fill="#C3A47A" fill-opacity="0.97" stroke="None">
<path d="
M 799.00 226.00 
C 798.16 223.00 802.86 224.87 802.00 222.00
C 799.78 218.00 796.00 214.92 794.00 211.00
C 795.66 215.84 797.73 221.38 799.00 226.00 Z"/>
</g>
<g fill="#452100" fill-opacity="0.98" stroke="None">
<path d="
M 730.00 225.00 
C 731.58 224.03 733.80 222.30 735.00 221.00
C 736.95 218.89 737.92 215.27 741.00 215.00
C 741.41 218.75 740.77 223.27 737.00 225.00
C 736.95 225.49 737.00 226.00 737.00 226.00
C 736.55 228.35 734.91 230.46 733.00 229.00
C 732.90 229.20 732.00 229.00 732.00 229.00
C 731.07 231.90 729.21 232.73 727.00 234.00
C 728.55 233.45 729.82 233.31 732.00 232.00
C 732.94 231.43 733.96 231.50 735.00 231.00
C 738.91 225.90 743.96 221.31 742.00 214.00
C 736.31 213.93 734.57 221.71 730.00 225.00 Z"/>
</g>
<g fill="#241D00" fill-opacity="0.99" stroke="None">
<path d="
M 735.00 221.00 
C 735.07 222.00 737.24 222.78 737.00 225.00
C 740.77 223.27 741.41 218.75 741.00 215.00
C 737.92 215.27 736.95 218.89 735.00 221.00 Z"/>
</g>
<g fill="#2C2300" fill-opacity="0.99" stroke="None">
<path d="
M 708.00 217.00 
C 709.61 219.62 711.31 220.52 711.00 224.00
C 711.00 224.00 710.80 224.90 711.00 225.00
C 712.84 224.42 713.91 224.87 715.00 223.00
C 711.84 228.46 721.34 227.71 719.00 231.00
C 719.00 231.00 719.15 231.95 719.00 232.00
C 720.65 230.12 721.27 228.53 723.00 228.00
C 720.04 227.49 721.88 224.07 724.08 223.08 C 726.27 222.08 724.69 217.25 725.00 216.00
C 723.16 218.53 721.29 221.46 719.00 224.00
C 716.02 223.39 711.77 221.94 713.00 218.00
C 711.28 217.96 709.37 218.23 708.00 217.00 Z"/>
</g>
<g fill="#273B00" fill-opacity="1.00" stroke="None">
<path d="
M 730.00 225.00 
C 727.94 226.26 726.21 226.40 724.00 227.00
C 723.76 227.06 723.35 227.89 723.00 228.00
C 721.27 228.53 720.65 230.12 719.00 232.00
C 718.75 232.28 719.00 233.00 719.00 233.00
C 720.82 238.07 729.10 229.59 732.00 229.00
C 732.00 229.00 732.90 229.20 733.00 229.00
C 734.00 227.06 735.02 226.48 737.00 226.00
C 737.00 226.00 736.95 225.49 737.00 225.00
C 737.24 222.78 735.07 222.00 735.00 221.00
C 733.80 222.30 731.58 224.03 730.00 225.00 Z"/>
</g>
<g fill="#582900" fill-opacity="0.98" stroke="None">
<path d="
M 711.00 225.00 
C 714.17 226.62 715.51 229.27 719.00 231.00
C 721.34 227.71 711.84 228.46 715.00 223.00
C 713.91 224.87 712.84 224.42 711.00 225.00 Z"/>
</g>
<g fill="#2D4100" fill-opacity="1.00" stroke="None">
<path d="
M 752.00 238.00 
C 750.43 234.45 749.62 229.55 748.00 226.00
C 747.97 224.86 746.47 224.28 747.00 223.00
C 735.44 226.35 744.52 244.21 754.00 245.00
C 753.62 242.48 752.76 240.37 752.00 238.00 Z"/>
</g>
<g fill="#241E00" fill-opacity="0.99" stroke="None">
<path d="
M 733.00 229.00 
C 734.91 230.46 736.55 228.35 737.00 226.00
C 735.02 226.48 734.00 227.06 733.00 229.00 Z"/>
</g>
<g fill="#392100" fill-opacity="0.99" stroke="None">
<path d="
M 752.00 238.00 
C 750.78 234.20 750.03 229.14 748.00 226.00
C 749.62 229.55 750.43 234.45 752.00 238.00 Z"/>
</g>
<g fill="#2D2300" fill-opacity="0.99" stroke="None">
<path d="
M 719.00 233.00 
C 715.74 235.02 717.87 236.49 721.00 236.00
C 719.99 237.59 718.47 238.85 719.00 241.00
C 720.98 241.93 717.56 242.27 717.00 243.00
C 721.04 252.23 722.29 242.07 729.78 243.22 C 737.26 244.36 733.94 236.24 735.00 231.00
C 733.96 231.50 732.94 231.43 732.00 232.00
C 738.37 233.63 727.13 238.78 731.00 242.00
C 722.13 245.06 716.15 235.87 727.00 234.00
C 729.21 232.73 731.07 231.90 732.00 229.00
C 729.10 229.59 720.82 238.07 719.00 233.00 Z"/>
</g>
<g fill="#522A00" fill-opacity="0.98" stroke="None">
<path d="
M 716.00 237.00 
C 717.00 237.00 718.00 237.00 719.00 237.00
C 717.11 238.06 719.04 240.44 719.00 241.00
C 718.47 238.85 719.99 237.59 721.00 236.00
C 717.87 236.49 715.74 235.02 719.00 233.00
C 719.00 233.00 718.75 232.28 719.00 232.00
C 714.73 233.38 716.60 234.80 716.00 237.00 Z"/>
</g>
<g fill="#283800" fill-opacity="1.00" stroke="None">
<path d="
M 727.00 234.00 
C 716.15 235.87 722.13 245.06 731.00 242.00
C 727.13 238.78 738.37 233.63 732.00 232.00
C 729.82 233.31 728.55 233.45 727.00 234.00 Z"/>
</g>
<g fill="#ECE3AE" fill-opacity="0.05" stroke="None">
<path d="
M 822.00 252.00 
C 822.39 247.57 822.39 242.43 822.00 238.00
C 821.97 241.62 821.97 248.31 822.00 252.00 Z"/>
</g>
<g fill="#4E2200" fill-opacity="1.00" stroke="None">
<path d="
M 784.00 249.00 
C 784.49 248.92 785.57 249.17 786.00 249.00
C 792.25 243.05 793.00 252.22 793.00 257.00
C 793.00 258.63 793.17 260.38 793.00 262.00
C 793.00 262.00 793.73 262.25 794.00 262.00
C 794.03 261.00 794.00 260.00 794.00 259.00
C 794.00 250.21 793.07 243.27 784.00 249.00 Z"/>
</g>
<g fill="#2D2100" fill-opacity="1.00" stroke="None">
<path d="
M 786.00 249.00 
C 792.35 246.42 792.51 252.37 793.00 257.00
C 793.00 252.22 792.25 243.05 786.00 249.00 Z"/>
</g>
<g fill="#C06C01" fill-opacity="0.99" stroke="None">
<path d="
M 741.00 270.00 
C 731.01 266.02 727.62 261.91 721.78 252.22 C 715.93 242.54 712.88 261.52 721.00 267.00
C 725.14 261.52 725.88 268.70 729.98 270.02 C 734.08 271.35 739.69 274.88 741.00 270.00 Z"/>
</g>
<g fill="#192000" fill-opacity="1.00" stroke="None">
<path d="
M 786.00 249.00 
C 785.57 249.17 784.49 248.92 784.00 249.00
C 780.35 249.60 775.80 254.29 772.08 255.08 C 768.36 255.87 763.31 258.21 762.00 262.00
C 762.56 262.82 763.45 263.60 763.00 265.00
C 765.23 264.29 769.93 262.57 769.00 267.00
C 770.30 264.74 774.36 262.98 776.00 261.00
C 775.72 262.28 776.76 264.50 775.00 265.00
C 775.08 268.02 774.46 273.38 778.00 274.00
C 778.68 277.05 774.72 277.54 776.00 281.00
C 778.08 282.17 781.17 282.19 782.00 285.00
C 788.21 284.62 792.47 266.93 793.00 262.00
C 793.17 260.38 793.00 258.63 793.00 257.00
C 792.51 252.37 792.35 246.42 786.00 249.00
M 786.00 262.00 
C 782.84 262.57 782.71 266.51 780.00 268.00
C 779.71 264.09 780.59 260.48 782.00 257.00
C 784.10 257.07 785.70 260.01 786.00 262.00 Z"/>
</g>
<g fill="#2B2000" fill-opacity="1.00" stroke="None">
<path d="
M 786.00 262.00 
C 785.70 260.01 784.10 257.07 782.00 257.00
C 780.59 260.48 779.71 264.09 780.00 268.00
C 782.71 266.51 782.84 262.57 786.00 262.00 Z"/>
</g>
<g fill="#B73100" fill-opacity="0.99" stroke="None">
<path d="
M 637.00 277.00 
C 622.22 279.80 628.38 294.34 634.00 304.00
C 639.84 314.05 657.32 307.57 666.32 301.32 C 675.32 295.07 687.52 293.18 693.22 281.22 C 698.92 269.27 680.75 259.42 670.68 263.68 C 660.60 267.94 647.89 274.94 637.00 277.00 Z"/>
</g>
<g fill="#372300" fill-opacity="1.00" stroke="None">
<path d="
M 769.00 267.00 
C 768.48 267.91 768.15 269.89 768.00 271.00
C 769.02 269.73 770.85 268.12 771.25 266.25 C 771.66 264.39 776.74 262.92 775.00 265.00
C 776.76 264.50 775.72 262.28 776.00 261.00
C 774.36 262.98 770.30 264.74 769.00 267.00 Z"/>
</g>
<g fill="#314D00" fill-opacity="1.00" stroke="None">
<path d="
M 762.00 264.00 
C 762.70 269.92 761.77 274.02 758.23 279.23 C 754.69 284.44 755.27 291.31 760.30 286.30 C 765.33 281.29 761.73 274.59 768.00 272.00
C 768.18 271.93 768.00 271.00 768.00 271.00
C 768.15 269.89 768.48 267.91 769.00 267.00
C 769.93 262.57 765.23 264.29 763.00 265.00
C 763.45 263.60 762.56 262.82 762.00 262.00
C 761.85 262.45 761.94 263.51 762.00 264.00 Z"/>
</g>
<g fill="#572200" fill-opacity="1.00" stroke="None">
<path d="
M 768.00 271.00 
C 768.00 271.00 768.18 271.93 768.00 272.00
C 771.61 270.93 770.39 266.11 774.00 265.00
C 773.97 270.53 773.11 285.54 782.00 285.00
C 781.17 282.19 778.08 282.17 776.00 281.00
C 774.72 277.54 778.68 277.05 778.00 274.00
C 774.46 273.38 775.08 268.02 775.00 265.00
C 776.74 262.92 771.66 264.39 771.25 266.25 C 770.85 268.12 769.02 269.73 768.00 271.00 Z"/>
</g>
<g fill="#7D6401" fill-opacity="1.00" stroke="None">
<path d="
M 768.00 272.00 
C 761.73 274.59 765.33 281.29 760.30 286.30 C 755.27 291.31 754.69 284.44 758.23 279.23 C 761.77 274.02 762.70 269.92 762.00 264.00
C 757.86 268.39 750.51 273.22 750.00 280.00 C 749.49 286.78 755.65 295.09 762.75 293.75 C 769.85 292.41 766.71 276.24 768.00 272.00 Z"/>
</g>
<g fill="#C26E01" fill-opacity="1.00" stroke="None">
<path d="
M 712.00 267.00 
C 702.36 263.79 699.92 273.11 698.33 281.33 C 696.75 289.55 706.92 290.66 712.75 286.75 C 718.58 282.84 717.10 268.70 712.00 267.00 Z"/>
</g>
<g fill="#DED4AA" fill-opacity="0.17" stroke="None">
<path d="
M 582.00 276.00 
C 579.26 276.17 580.89 280.68 578.00 280.00
C 580.66 286.86 577.18 295.12 582.00 302.00
C 587.03 304.61 594.50 303.57 598.00 308.00
C 593.50 296.37 586.15 286.76 585.00 275.00
C 584.71 276.14 581.64 276.23 582.00 276.00 Z"/>
</g>
<g fill="#324B00" fill-opacity="1.00" stroke="None">
<path d="
M 675.00 335.00 
C 675.74 337.76 678.92 339.55 682.00 339.00
C 679.62 334.78 679.50 328.81 681.00 324.00
C 682.00 320.80 687.22 318.95 687.00 316.00
C 686.90 315.82 686.05 314.02 686.00 314.00
C 678.01 310.37 673.81 330.56 675.00 335.00 Z"/>
</g>
<g fill="#815500" fill-opacity="1.00" stroke="None">
<path d="
M 687.00 316.00 
C 689.45 320.32 682.53 320.28 681.00 324.00
C 679.50 328.81 679.62 334.78 682.00 339.00
C 684.29 338.59 686.24 336.03 687.00 334.00
C 687.74 331.36 688.12 325.20 689.00 323.00 C 689.88 320.80 687.52 312.68 686.00 314.00
C 686.05 314.02 686.90 315.82 687.00 316.00 Z"/>
</g>
<g fill="#5C5400" fill-opacity="1.00" stroke="None">
<path d="
M 681.00 324.00 
C 682.53 320.28 689.45 320.32 687.00 316.00
C 687.22 318.95 682.00 320.80 681.00 324.00 Z"/>
</g>
<g fill="#DDD6B1" fill-opacity="0.35" stroke="None">
<path d="
M 790.00 326.00 
C 791.29 324.71 792.74 323.46 794.00 322.00
C 793.21 322.62 790.70 324.92 790.00 326.00 Z"/>
</g>
<g fill="#7D7703" fill-opacity="0.09" stroke="None">
<path d="
M 669.00 445.00 
C 668.91 436.18 659.66 446.08 669.00 445.00 Z"/>
</g>
</svg>